<?xml version="1.0" encoding="UTF-8"?>
<svg id="Layer_2" data-name="Layer 2" xmlns="http://www.w3.org/2000/svg" width="50.85mm" height="16.77mm" viewBox="0 0 144.13 47.52">
  <defs>
    <style>
      .cls-1 {
        fill: #000100;
      }

      .cls-2 {
        stroke: #000100;
        stroke-miterlimit: 10;
      }
    </style>
  </defs>
  <g id="Layer_1-2" data-name="Layer 1">
    <g>
      <g>
        <path d="M.23,16.71c-.14-.06-.21-.14-.22-.23-.01-.09,0-.18,.06-.27,.05-.09,.12-.17,.21-.23,.09-.06,.18-.09,.26-.09,.34,.06,.68,.05,1.02-.03,.34-.08,.68-.2,1.01-.35,.33-.15,.65-.32,.96-.51,.31-.19,.61-.36,.89-.5,.28,0,.43,.1,.45,.29,.02,.19-.03,.29-.15,.29-.42,.14-.81,.3-1.17,.48-.36,.18-.72,.36-1.07,.53-.35,.17-.71,.32-1.07,.44-.36,.12-.75,.18-1.18,.18Zm.57,0c-.28,0-.42-.09-.42-.27s.14-.27,.42-.27c.82,0,1.46,.21,1.9,.62,.44,.41,.74,1.04,.9,1.88,.14,1.26,.19,2.46,.14,3.59-.05,1.13,0,2.26,.14,3.38v4.39c-.15,.7-.24,1.4-.29,2.09-.04,.69-.15,1.38-.32,2.06,0,.56,.03,1.12,.11,1.67,.07,.55,.03,1.03-.11,1.43-.27,.4-.64,.71-1.13,.92-.49,.21-.93,.45-1.34,.71-.14,.16-.3,.19-.48,.09-.18-.1-.21-.21-.09-.33,.2-.2,.43-.38,.69-.54,.26-.16,.51-.32,.75-.47,.24-.15,.46-.32,.66-.5,.2-.18,.34-.41,.42-.69,0-.58-.04-1.1-.12-1.57-.08-.46-.04-.96,.12-1.5,0-1.12,.08-2.24,.24-3.35,.16-1.11,.18-2.22,.06-3.32-.08-.48-.12-.95-.13-1.41-.01-.46,0-.92,.01-1.37,.02-.45,.05-.9,.07-1.35,.03-.45,.04-.92,.04-1.4,0-.42-.06-.89-.2-1.4-.13-.51-.28-.99-.44-1.43-.12-.54-.29-.95-.5-1.23-.21-.28-.59-.42-1.13-.42Zm-.27,22.2c-.14,0-.23-.03-.27-.09-.04-.06-.06-.12-.04-.18,0-.06,.04-.12,.11-.18,.06-.06,.13-.09,.21-.09,1.12,0,2.19,0,3.2,.03,1.01,.02,2.07,.11,3.17,.27-.16,.12-.26,.2-.3,.24-.04,.04-.13,.14-.27,.3-.4-.14-.75-.34-1.04-.6-.29-.26-.53-.56-.73-.89-.2-.33-.38-.68-.53-1.04-.15-.36-.3-.72-.44-1.08-.08-.14-.1-.25-.05-.33,.05-.08,.13-.13,.24-.14,.11,0,.22,0,.34,.03,.12,.03,.21,.08,.27,.14,.16,.7,.44,1.37,.84,2,.4,.63,.95,1.09,1.66,1.37,.14,.06,.22,.12,.22,.18,.01,.06,0,.12-.06,.18-.05,.06-.12,.1-.21,.14-.09,.03-.18,.05-.26,.05-.96-.16-1.98-.25-3.04-.27-1.06-.02-2.07-.03-3.04-.03Zm1.9-22.44c0,.06-.04,.11-.12,.14-.08,.03-.16,.05-.25,.05s-.16-.02-.2-.05c-.04-.03-.03-.07,.03-.14,.44-.42,.83-.71,1.17-.87,.34-.16,.79-.24,1.35-.24,.04,0,.09,.01,.15,.03,.1,.06,.15,.14,.15,.24-.28,.14-.5,.28-.66,.41-.16,.13-.31,.27-.45,.44h-.54c0-.16,.05-.23,.15-.21,.1,.02,.23,.17,.39,.45,.14-.12,.22-.2,.24-.24,.02-.04,.03-.14,.03-.3,.14-.14,.22-.28,.24-.41,.02-.13,.03-.27,.03-.41,.14-.14,.28-.22,.42-.24,.14-.02,.27-.03,.39-.03-.14,.48-.23,.98-.27,1.49-.04,.51-.06,1.03-.06,1.55s.01,1.04,.04,1.56c.03,.52,.04,1.02,.04,1.5-.3,1.94-.3,3.88,0,5.8,0,.08-.04,.14-.14,.18-.09,.04-.18,.06-.28,.06s-.2-.02-.29-.06c-.09-.04-.13-.1-.13-.18-.14-1.12-.18-2.23-.11-3.32,.07-1.09,.11-2.2,.11-3.32,0-.42-.01-.84-.03-1.26-.02-.42-.03-.84-.03-1.25s.02-.82,.06-1.23c.04-.41,.13-.83,.27-1.25,0-.06,.04-.13,.12-.2,.08-.07,.18-.12,.29-.15,.11-.03,.21-.05,.29-.05s.12,.04,.12,.12c-.06,.28-.16,.56-.3,.84-.14,.28-.32,.53-.53,.74-.21,.21-.46,.36-.74,.44-.28,.08-.6,.05-.96-.09-.12-.16-.13-.35-.05-.57,.09-.22,.21-.4,.38-.54,.16-.14,.36-.21,.6-.21s.5,.07,.78,.21c-.14,.14-.23,.28-.27,.42-.04,.14-.13,.27-.27,.39-.08,0-.17,.02-.26,.05-.09,.03-.18,.06-.27,.07-.09,.02-.17,.03-.23,.02-.06,0-.09-.05-.09-.14,.16-.12,.3-.25,.42-.39,.12-.14,.26-.28,.42-.42-.16,0-.3,0-.42,.03-.12,.02-.26,.1-.42,.24,0,.14-.06,.23-.18,.27-.06,.02-.11,.03-.15,.03Zm-.54,21.62s0-.08,.03-.12c.04-.1,.13-.15,.27-.15h.57c.16,0,.3,.05,.42,.14,.12,.09,.26,.13,.42,.13h.54v-.27h-.27c.14,0,.22,.01,.24,.03,.02,.02,.03,.1,.03,.24-.06,0-.14,.02-.24,.05-.1,.03-.2,.05-.29,.06-.09,.01-.17,.01-.23,0-.06,0-.09-.04-.09-.11,.16-.28,.41-.47,.74-.59,.33-.11,.64-.09,.92,.04v.27c-.12,.28-.31,.44-.56,.48-.25,.04-.52,.06-.8,.06s-.57-.01-.86-.03c-.29-.02-.58-.1-.86-.24Zm1.38-6.38c.08,.56,.15,1.16,.21,1.79,.05,.63,.06,1.26,.02,1.89-.04,.63-.14,1.23-.31,1.79-.16,.56-.43,1.05-.78,1.47-.12,.12-.09,.23,.1,.33,.19,.1,.37,.07,.53-.09,.28-.12,.51-.32,.67-.6,.16-.28,.31-.62,.45-1.02,.14,0,.18,0,.11-.03-.07-.02-.11-.1-.11-.24-.06,0-.11,0-.15-.03-.08-.04-.12-.13-.12-.27-.14,0-.28,.01-.42,.03-.14,.02-.27,.11-.39,.27,0,.06,0,.11-.03,.15-.04,.08-.13,.12-.27,.12-.08,.06-.1,.13-.04,.19,.05,.07,.12,.12,.23,.15,.1,.03,.21,.04,.35,.03,.13,0,.24-.05,.32-.11,0-.14,.01-.22,.03-.24,.02-.02,.1-.03,.24-.03h-.83c.2,.06,.3,.15,.32,.27s-.01,.24-.1,.36c-.09,.12-.21,.22-.37,.31-.16,.09-.32,.14-.48,.14,.16,.16,.31,.26,.44,.3,.13,.04,.2,.12,.2,.24,.34-.48,.58-1.02,.73-1.61,.15-.59,.25-1.21,.3-1.85,.05-.64,.07-1.28,.06-1.93,0-.64-.01-1.24-.01-1.8,0-.14-.04-.23-.14-.27-.09-.04-.19-.05-.28-.03-.1,.02-.2,.06-.29,.12-.09,.06-.13,.12-.13,.18Zm-.84-13.35v15.58c.15,.12,.33,.17,.54,.15,.2-.02,.3-.17,.3-.45-.12-2.51-.15-5.01-.09-7.52,.06-2.51,.09-5.09,.09-7.76,0-.06-.04-.11-.13-.15-.09-.04-.19-.06-.29-.06s-.2,.02-.29,.06c-.09,.04-.13,.09-.13,.15Zm.33-1.08c0-.14,.09-.25,.26-.35,.17-.09,.26-.07,.26,.07,0,.84,.03,1.62,.11,2.33,.07,.71,.32,1.41,.74,2.09,0,.08-.04,.15-.14,.21-.09,.06-.19,.11-.28,.14-.1,.03-.2,.05-.29,.05s-.13-.03-.13-.09c-.27-.7-.42-1.44-.45-2.23-.04-.78-.06-1.52-.06-2.23Zm.51-.27c-.12,1.95-.1,3.89,.07,5.82,.17,1.94,.26,3.88,.26,5.82,0,.06,.04,.11,.12,.15,.08,.04,.17,.06,.28,.06s.21-.02,.29-.06c.08-.04,.12-.09,.12-.15,0-1.04-.03-2.07-.08-3.08-.05-1.01-.1-2.01-.15-2.99-.05-.98-.09-1.96-.11-2.93-.02-.97,0-1.95,.06-2.93,0-.06-.05-.09-.14-.09s-.19,.02-.29,.05c-.1,.03-.2,.08-.29,.14-.09,.06-.14,.13-.14,.21Zm1.14,9.72c0-.06,.04-.11,.13-.15,.09-.04,.19-.06,.29-.06s.2,.02,.28,.06c.09,.04,.13,.09,.13,.15,0,1.82-.09,3.63-.27,5.41-.18,1.78-.27,3.59-.27,5.41,0,.06-.04,.13-.14,.2-.09,.07-.18,.12-.28,.15-.1,.03-.2,.04-.29,.03-.09-.01-.13-.05-.13-.11,0-.84-.05-1.66-.14-2.47-.09-.8-.14-1.55-.14-2.25v-2.5c0-.42,.05-.8,.14-1.13,.09-.33,.14-.7,.14-1.1,0-.08,.04-.14,.13-.17,.09-.03,.19-.05,.29-.05s.2,.02,.28,.05c.09,.03,.14,.09,.14,.17,0,.7-.05,1.4-.15,2.09-.1,.69-.15,1.39-.15,2.09,0,.82,0,1.64,.03,2.47,.02,.82,.11,1.66,.27,2.53h-.84c.14-1.82,.26-3.63,.37-5.41,.11-1.78,.17-3.59,.17-5.41Zm-.81,11.64c0-.14,.06-.22,.17-.24,.11-.02,.24-.03,.38-.03s.28,.05,.42,.14c.14,.09,.27,.14,.39,.14,0,.14-.04,.23-.12,.27-.04,.02-.08,.03-.12,.03-.16,0-.26,.03-.3,.09-.04,.06-.13,.03-.27-.09-.14,0-.23-.05-.27-.15-.04-.1-.13-.15-.27-.15Zm1.65-11.64c0,.06-.04,.11-.12,.15-.08,.04-.17,.06-.26,.06s-.16-.02-.21-.06c-.05-.04-.04-.09,.04-.15,.26-.62,.73-1.23,1.4-1.84,.67-.6,1.41-1.08,2.23-1.43,.81-.35,1.64-.51,2.48-.5,.84,.02,1.57,.34,2.2,.96,.7,.58,1.14,1.26,1.33,2.03,.19,.77,.29,1.58,.29,2.42,.16,1.54,.2,3.06,.12,4.56-.08,1.49-.12,2.94-.12,4.35,0,.14-.04,.24-.13,.31-.09,.07-.19,.11-.29,.11s-.2-.04-.29-.11c-.09-.07-.13-.18-.13-.31v-6.11c0-.5,.01-.99,.04-1.47,.03-.48,.04-.95,.01-1.41-.02-.46-.07-.91-.15-1.35-.08-.44-.23-.87-.45-1.29-.22-.6-.54-1.06-.96-1.38-.42-.32-.89-.52-1.42-.59-.52-.07-1.06-.04-1.62,.09-.56,.13-1.1,.34-1.62,.62-.52,.28-.99,.63-1.41,1.04-.42,.41-.74,.85-.96,1.31Zm-.54-11.64c0-.08,.04-.15,.12-.21,.08-.06,.17-.11,.27-.15,.1-.04,.19-.05,.27-.04,.08,0,.12,.04,.12,.11v23.88c0,.06-.04,.11-.12,.14-.08,.03-.17,.05-.27,.05s-.19-.02-.27-.05c-.08-.03-.12-.07-.12-.14v-.3c0-.06,.04-.13,.12-.2,.08-.07,.17-.12,.27-.15,.1-.03,.19-.04,.27-.03,.08,.01,.12,.04,.12,.1v.57c0,.06-.04,.11-.12,.14-.08,.03-.17,.05-.27,.05s-.19-.02-.27-.05c-.08-.03-.12-.07-.12-.14V15.08Zm7.73,12.45c-.16,.06-.3,.1-.42,.12-.1,.02-.2,.03-.28,.02-.09,0-.14-.06-.14-.14-.12-.4-.28-.84-.47-1.31-.19-.47-.49-.85-.89-1.13-.14-.16-.34-.31-.6-.44-.26-.13-.54-.24-.84-.32-.3-.08-.6-.11-.89-.11-.29,.01-.53,.09-.74,.23-.14,.14-.31,.23-.51,.27-.1,.02-.21,.03-.33,.03,.56-.42,1.17-.66,1.82-.71,.65-.05,1.26,0,1.82,.16,1.37,.54,2.19,1.65,2.47,3.31Zm-3.58-3.31c-.28,0-.42-.09-.42-.28s.14-.29,.42-.29c.34,0,.71,.01,1.11,.03,.4,.02,.79,.08,1.17,.17,.38,.09,.73,.23,1.05,.42,.32,.19,.59,.47,.81,.83,.2,.4,.33,.85,.38,1.35,.05,.5,.06,1.01,.05,1.52-.02,.51-.06,1.02-.11,1.53-.05,.51-.08,.98-.08,1.4,0,.06-.04,.12-.12,.18-.08,.06-.18,.1-.28,.12-.11,.02-.21,0-.29-.03-.08-.04-.12-.13-.12-.27,0-.7,.04-1.44,.11-2.23,.07-.78,.04-1.52-.11-2.23-.06-.5-.2-.9-.44-1.19-.23-.29-.51-.51-.84-.66-.33-.15-.69-.25-1.08-.3-.39-.05-.8-.08-1.22-.08Zm.84,14.68c-.14,.08-.22,.11-.24,.09-.02-.02,0-.06,.06-.11,.06-.05,.13-.1,.22-.15,.09-.05,.17-.08,.22-.08,.4-.08,.71-.37,.93-.86,.22-.49,.38-1.05,.48-1.67,.1-.62,.16-1.24,.18-1.87,.02-.62,.03-1.1,.03-1.44,.3-1.66,.3-3.33,0-4.99,0-.08,.05-.15,.14-.21,.09-.06,.18-.11,.28-.14,.1-.03,.2-.04,.29-.04s.13,.03,.13,.09c.14,1.12,.21,2.29,.21,3.49s-.07,2.36-.21,3.46c-.06,.42-.13,.87-.23,1.35-.09,.48-.23,.94-.42,1.38-.19,.44-.45,.82-.78,1.13-.33,.31-.77,.5-1.31,.56Zm3.85-2.2c0-.06,.05-.12,.14-.18,.09-.06,.19-.11,.3-.15,.11-.04,.21-.05,.3-.05,.09,.01,.14,.06,.14,.14,0,.28,.08,.53,.22,.74,.15,.21,.33,.41,.53,.59,.2,.18,.41,.36,.62,.54,.21,.18,.39,.37,.53,.57,.08,0,.11,.02,.09,.05-.02,.03-.05,.06-.09,.11-.06,.06-.14,.11-.24,.15-.42,0-.84-.01-1.25-.03-.41-.02-.84-.11-1.28-.27-.28,0-.57-.02-.87-.07-.3-.05-.6-.09-.89-.12-.29-.03-.57-.04-.84-.03-.27,.01-.51,.09-.71,.23-.06,.08-.15,.12-.27,.12s-.22-.02-.31-.05c-.09-.03-.14-.08-.15-.13-.01-.06,.05-.12,.2-.18,.48-.28,.99-.43,1.52-.44,.53,0,1.08,.03,1.64,.11,.56,.08,1.12,.17,1.67,.27s1.07,.12,1.55,.06c0,.12-.05,.2-.15,.24-.1,.04-.15,.14-.15,.3-.2-.2-.43-.4-.69-.59-.26-.19-.5-.38-.72-.57-.22-.19-.41-.39-.57-.6-.16-.21-.24-.45-.24-.74Zm-3.58-12.24c-.08-.06-.09-.12-.04-.18,.05-.06,.13-.12,.23-.18l.36-.18c.28,.28,.56,.51,.83,.68,.27,.17,.55,.34,.83,.5,.14,.06,.2,.12,.18,.18-.02,.06-.07,.12-.15,.18-.08,.06-.18,.11-.3,.13-.12,.03-.22,.05-.3,.05-.28-.16-.59-.32-.92-.47-.33-.15-.57-.39-.71-.71Zm.54-.81c.28,.56,.58,1.08,.89,1.56,.31,.48,.75,.8,1.31,.96,.26,0,.43,.12,.5,.36,.07,.24,.1,.52,.09,.84-.01,.32-.04,.65-.07,.99-.04,.34-.03,.61,.03,.81,.16,0,.3,0,.42-.03,.1-.02,.2-.05,.3-.08s.15-.08,.15-.17c0-.14,.02-.35,.08-.63,.05-.28,.09-.58,.12-.89,.03-.31,.04-.61,.03-.89-.01-.28-.09-.49-.23-.63-.28-.12-.55-.16-.8-.12-.25,.04-.46,0-.62-.12-.28-.28-.55-.61-.8-.99-.25-.38-.44-.71-.56-.99,0-.06-.05-.09-.14-.11-.09,0-.19,0-.29,.02-.12,.02-.26,.05-.42,.09Zm1.38,14.17c0,.06-.05,.13-.13,.2-.09,.07-.19,.12-.29,.15-.1,.03-.2,.04-.28,.03-.09,0-.14-.04-.14-.11,.16-.4,.38-.8,.65-1.19,.27-.39,.61-.75,1.01-1.07,.1-.04,.19-.07,.27-.09,.06-.02,.12-.02,.18-.01,.06,0,.09,.04,.09,.1,.08,.16,.16,.38,.23,.66,.07,.28,.16,.55,.27,.81,.11,.26,.24,.47,.38,.63,.14,.16,.32,.21,.54,.15-.12,.14-.2,.23-.24,.27-.04,.04-.14,.14-.3,.3-.14-.08-.33-.16-.57-.22-.24-.07-.46-.16-.65-.27-.19-.11-.32-.24-.39-.38-.07-.14,0-.31,.2-.51,.08-.06,.17-.16,.26-.29,.09-.13,.16-.27,.21-.42,.05-.15,.07-.29,.06-.42-.01-.13-.09-.23-.23-.32-.16-.12-.32-.25-.47-.39-.15-.14-.37-.28-.65-.42h.81v1.11c0,.08-.04,.16-.12,.23-.08,.07-.18,.12-.28,.15-.11,.03-.21,.05-.29,.05s-.12-.03-.12-.09v-1.44c0-.12,.13-.2,.39-.24,.12-.02,.26-.03,.42-.03,.14,.14,.31,.27,.5,.38,.19,.11,.36,.24,.5,.38,.14,.14,.23,.31,.27,.5,.04,.19-.02,.43-.18,.71,0,.08-.04,.17-.12,.27-.08,.1-.15,.2-.21,.3-.06,.1-.1,.2-.11,.3,0,.1,.05,.18,.2,.24,.12,.14,.31,.22,.56,.24,.25,.02,.44,.03,.56,.03,.12,.12,.12,.25,0,.39-.06,.08-.14,.14-.24,.18-.36,0-.65-.09-.87-.27-.22-.18-.39-.41-.51-.69-.12-.28-.21-.59-.26-.92-.05-.33-.07-.65-.07-.95h.54c-.28,.32-.54,.63-.78,.93-.24,.3-.43,.65-.57,1.05Zm-.3-12.48c.12-.04,.23-.07,.33-.09,.22-.04,.39-.01,.51,.09,.28,.7,.59,1.46,.93,2.29,.34,.82,.59,1.72,.75,2.71,.16,.98,.2,2,.12,3.05-.08,1.05-.12,2.08-.12,3.08,0,.06-.04,.12-.13,.18-.09,.06-.19,.11-.3,.14-.11,.03-.21,.05-.3,.05s-.14-.04-.14-.12c.3-2.21,.3-4.43,0-6.68-.12-.82-.36-1.6-.71-2.35-.35-.74-.67-1.52-.95-2.34Zm0,.3c0-.08,.05-.15,.14-.21,.09-.06,.18-.1,.28-.13s.2-.04,.29-.04,.13,.03,.13,.09c.56,.76,.96,1.58,1.19,2.47,.23,.88,.35,1.79,.35,2.72s-.09,1.88-.27,2.83c-.18,.95-.41,1.88-.69,2.78,0,.08-.04,.14-.12,.18-.08,.04-.16,.06-.26,.06s-.16-.02-.21-.06c-.05-.04-.05-.1,.01-.18,.2-.82,.37-1.69,.51-2.6,.14-.91,.21-1.83,.2-2.75,0-.92-.13-1.82-.38-2.69-.24-.87-.63-1.69-1.17-2.45Zm.57,5.53c0-.06,.04-.11,.13-.15,.09-.04,.18-.06,.28-.06s.2,.02,.29,.06c.09,.04,.13,.09,.13,.15,0,.62,.03,1.24,.08,1.86,.05,.62,.08,1.24,.09,1.86,.01,.62-.01,1.25-.07,1.88-.06,.63-.19,1.26-.39,1.88-.06,.06-.15,.11-.27,.14-.12,.03-.23,.05-.34,.05s-.19-.02-.24-.05c-.05-.03-.04-.07,.05-.14,.4-1.26,.58-2.52,.54-3.76-.04-1.24-.13-2.49-.27-3.73Z"/>
        <path d="M19.78,23.8c-.1,0-.03-.05,.21-.15,.12-.06,.27-.12,.45-.18,.7,.24,1.12,.6,1.25,1.08,.13,.48,.08,.95-.15,1.4-.23,.45-.6,.82-1.1,1.1-.5,.28-1.03,.34-1.59,.18-.4-.16-.65-.42-.75-.77-.1-.35-.12-.73-.06-1.14,.06-.41,.17-.81,.33-1.2,.16-.39,.32-.71,.48-.95,.64-.64,1.37-1.19,2.2-1.64,.82-.45,1.77-.76,2.86-.92,.8-.16,1.63-.15,2.48,.03,.85,.18,1.59,.59,2.21,1.23,.5,.64,.9,1.39,1.19,2.26,.29,.86,.44,1.68,.44,2.47,.16,.96,.2,1.92,.12,2.86-.08,.94-.12,1.89-.12,2.83,0,.48,.03,1.02,.09,1.61,.06,.59,.18,1.15,.35,1.69,.17,.53,.42,.99,.75,1.38,.33,.39,.77,.62,1.31,.68,.16,0,.24,.01,.23,.04-.01,.03-.06,.07-.17,.12-.1,.05-.22,.09-.36,.12-.14,.03-.25,.04-.33,.04-.7-.08-1.24-.34-1.62-.77-.38-.43-.66-.94-.84-1.53-.18-.59-.29-1.22-.32-1.88-.03-.66-.04-1.27-.04-1.84,.08-.62,.14-1.28,.18-1.97,.04-.69,.03-1.39-.01-2.09-.05-.7-.14-1.4-.27-2.11-.13-.7-.31-1.36-.56-1.98-.3-.64-.65-1.19-1.04-1.65-.39-.46-.98-.86-1.76-1.2-.54-.08-1.13-.08-1.77,0-.64,.08-1.27,.24-1.88,.48-.61,.24-1.18,.56-1.71,.96-.53,.4-.96,.87-1.28,1.41-.08,.16-.15,.35-.21,.57-.06,.22-.1,.45-.12,.68-.02,.23-.01,.46,.03,.68,.04,.22,.14,.41,.3,.57,.08,.16,.2,.26,.35,.3,.15,.04,.31,.04,.47,0,.16-.04,.31-.11,.45-.21,.14-.1,.24-.23,.3-.39,.16-.24,.25-.48,.26-.71,0-.23-.03-.44-.14-.63-.1-.19-.24-.36-.42-.51-.18-.15-.39-.26-.63-.35Zm7.88,6.92c0,.08-.05,.16-.15,.22-.1,.07-.21,.13-.32,.17-.11,.04-.22,.06-.32,.06s-.15-.04-.15-.12c-.16-.38-.42-.73-.78-1.04-.36-.31-.77-.56-1.22-.75-.45-.19-.92-.3-1.4-.33-.48-.03-.92,.03-1.32,.17-.48,.16-.9,.41-1.25,.75-.35,.34-.65,.72-.89,1.13-.24,.41-.42,.84-.54,1.29-.12,.45-.18,.88-.18,1.28-.08,.54-.11,1.08-.1,1.62,.01,.54,.07,1.05,.2,1.53,.12,.48,.29,.91,.53,1.29,.23,.38,.55,.69,.95,.93,.56,.3,1.12,.45,1.67,.45s1.08-.1,1.59-.3c.51-.2,1-.46,1.46-.78,.46-.32,.89-.63,1.29-.93,.08-.08,.17-.12,.27-.14,.1,0,.19,0,.27,.05,.08,.04,.13,.09,.16,.16,.03,.07,0,.14-.08,.2-.46,.4-.95,.79-1.46,1.16-.51,.37-1.05,.67-1.61,.9-.56,.23-1.14,.37-1.73,.42-.59,.05-1.21-.05-1.85-.29-.62-.3-1.13-.72-1.52-1.25-.39-.53-.68-1.11-.87-1.74-.19-.63-.29-1.29-.3-1.97-.01-.68,.06-1.33,.22-1.96,.14-.54,.33-1.06,.57-1.56,.24-.5,.52-.95,.86-1.34,.33-.39,.72-.72,1.16-.99,.44-.27,.94-.45,1.5-.53,.46-.08,.96-.09,1.49-.04,.53,.05,1.04,.17,1.53,.35,.49,.18,.94,.43,1.34,.74,.4,.31,.72,.71,.96,1.19Zm-8.81-6.29c-.16,0-.23-.02-.21-.05,.02-.03,.08-.07,.18-.12,.1-.05,.21-.09,.35-.12,.13-.03,.24-.05,.31-.05,.3,0,.6,.07,.89,.21,.29,.14,.52,.33,.68,.57,.16,.24,.23,.51,.2,.81-.03,.3-.21,.6-.53,.9-.24,.16-.49,.25-.74,.26-.25,0-.47-.05-.66-.17-.19-.12-.34-.3-.44-.53-.1-.23-.11-.5-.03-.8,.08-.24,.24-.43,.48-.57,.24-.14,.49-.22,.75-.24,.26-.02,.49,.03,.69,.15,.2,.12,.3,.34,.3,.66,0,.62-.32,.93-.96,.93-.16,0-.3-.05-.42-.15-.12-.1-.22-.22-.3-.36-.08-.14-.14-.28-.18-.42-.04-.14-.06-.25-.06-.33-.26-.62-.27-1.18-.01-1.67,.25-.49,.65-.9,1.2-1.23,.55-.33,1.2-.57,1.96-.74,.75-.16,1.5-.23,2.24-.2,.74,.03,1.42,.15,2.05,.36,.62,.21,1.09,.53,1.41,.95,.3,.48,.49,.97,.57,1.47,.08,.5,.22,1.06,.42,1.68,.14,.64,.26,1.32,.36,2.05,.1,.72,.07,1.4-.09,2.04,0,.48-.07,.96-.2,1.43-.13,.47-.26,.93-.39,1.38-.13,.45-.24,.89-.33,1.32-.09,.43-.1,.84-.02,1.22,.34,.96,.82,1.72,1.43,2.27,.61,.55,1.39,.75,2.33,.59,.32,0,.44,.06,.36,.16-.08,.11-.2,.17-.36,.17-.54,.16-1.06,.22-1.56,.18-.5-.04-.95-.15-1.34-.35-.39-.19-.72-.46-.99-.81-.27-.35-.45-.77-.53-1.25-.16-.8-.18-1.53-.04-2.18,.13-.65,.37-1.3,.71-1.94,.14-.76,.21-1.59,.21-2.5s-.07-1.74-.21-2.53c-.16-.48-.3-1.01-.42-1.59-.12-.58-.27-1.14-.46-1.67-.19-.53-.46-.99-.81-1.38s-.84-.62-1.46-.68c-.4,0-.81,0-1.22,.02-.41,0-.82,.05-1.23,.14-.41,.08-.81,.21-1.2,.37-.39,.17-.75,.41-1.07,.71-.34,.32-.52,.65-.54,.99-.02,.34,.05,.74,.21,1.2l.33,.63c0,.16-.06,.26-.18,.3-.06,.02-.11,.03-.15,.03,.14-.24,.17-.41,.11-.5-.07-.09-.17-.12-.29-.11-.12,.02-.22,.09-.29,.2-.07,.11-.02,.25,.13,.41,.16,.3,.26,.42,.29,.35,.03-.07,.05-.19,.05-.35,.16-.48,.11-.86-.17-1.14-.27-.28-.64-.42-1.1-.42Zm.6,6.29c0-.08,.05-.15,.16-.23,.1-.07,.22-.11,.34-.13,.12-.02,.24,0,.34,.05,.1,.05,.16,.16,.16,.32,0,.26-.05,.59-.14,.99-.09,.4-.19,.83-.29,1.29-.1,.46-.2,.93-.29,1.41-.09,.48-.14,.93-.14,1.35s.06,.8,.19,1.13c.12,.33,.35,.58,.68,.74,.16,.08,.23,.17,.21,.29-.02,.11-.08,.2-.18,.28-.1,.08-.22,.14-.37,.17-.14,.03-.26,0-.34-.07-.55-.32-.87-.81-.97-1.46-.1-.65-.1-1.35,0-2.11,.1-.75,.23-1.49,.41-2.23,.17-.73,.26-1.33,.26-1.79Zm1.93-1.62c0-.06,.05-.11,.15-.15,.1-.04,.2-.06,.3-.06s.18,.02,.23,.06c.05,.04,.04,.09-.05,.15-.46,.66-.91,1.42-1.34,2.29-.43,.86-.73,1.69-.89,2.5-.08,.46-.08,.89-.01,1.29,.07,.4,.19,.79,.35,1.17,.16,.38,.35,.75,.57,1.11,.22,.36,.45,.74,.69,1.14,.08,.08,.09,.15,.05,.23-.05,.07-.13,.12-.24,.17-.11,.04-.22,.06-.32,.06s-.15-.04-.15-.12c-.24-.32-.49-.66-.74-1.01-.25-.35-.47-.72-.66-1.1-.19-.38-.34-.77-.44-1.16-.1-.39-.11-.79-.03-1.19,.16-.96,.46-1.89,.9-2.8,.44-.9,.98-1.76,1.62-2.59Zm.63,0c-.78,.98-1.37,1.97-1.76,2.96-.39,.99-.66,2.11-.8,3.35,0,.32,0,.72-.03,1.19-.02,.47,0,.93,.06,1.38,.06,.45,.18,.85,.36,1.2,.18,.35,.47,.57,.87,.65,.16,0,.3-.03,.42-.09,.12-.06,.21-.13,.26-.21,.05-.08,.05-.15,0-.21-.05-.06-.16-.09-.32-.09-.32-.08-.54-.31-.65-.69-.11-.38-.17-.81-.17-1.28s.03-.94,.09-1.4c.06-.46,.09-.81,.09-1.05,.14-1.12,.4-2.1,.77-2.92,.37-.82,.96-1.62,1.76-2.41,.08-.16,.09-.29,.03-.38-.06-.09-.15-.14-.27-.16-.12-.02-.25-.02-.39,.01-.14,.03-.25,.08-.33,.14Zm-1.56,1.62c.14-.16,.33-.23,.57-.2,.24,.03,.36,.21,.36,.53-.32,.38-.57,.95-.75,1.7-.18,.75-.27,1.53-.27,2.33s.11,1.56,.33,2.29c.22,.72,.57,1.25,1.05,1.56,.14,.08,.2,.17,.18,.27-.02,.1-.08,.18-.18,.25-.1,.07-.22,.12-.35,.15-.13,.03-.24,0-.32-.08-.56-.38-.97-.95-1.22-1.71-.25-.76-.39-1.58-.41-2.45-.02-.87,.06-1.73,.24-2.57,.18-.84,.43-1.53,.75-2.08Zm.63-6.02c0,.08-.05,.16-.15,.24-.1,.08-.2,.14-.3,.18-.1,.04-.18,.06-.23,.05s-.04-.06,.05-.14c0-.62,.12-1.17,.38-1.65,.25-.48,.59-.88,1.01-1.19,.42-.31,.89-.55,1.41-.71,.52-.16,1.05-.24,1.6-.24,.62,.1,1.16,.28,1.61,.54,.45,.26,.81,.59,1.08,.98,.27,.39,.47,.84,.6,1.34,.13,.5,.2,1.02,.2,1.56-.06,.52-.16,1.23-.3,2.12-.14,.89-.26,1.84-.36,2.84-.1,1-.14,2.02-.13,3.04,0,1.02,.14,1.92,.39,2.71,.25,.78,.66,1.39,1.22,1.82,.56,.43,1.34,.57,2.35,.41,.24-.08,.39-.11,.44-.08,.05,.03,.05,.08,.01,.13-.04,.06-.11,.12-.19,.18-.09,.06-.18,.09-.26,.09-1.26,.22-2.24,.08-2.93-.42-.69-.5-1.18-1.18-1.47-2.04-.29-.86-.44-1.82-.45-2.87,0-1.05,.03-2.01,.11-2.87,.08-.48,.17-.99,.27-1.52,.1-.53,.19-1.07,.27-1.63,.08-.55,.13-1.1,.16-1.64,.03-.54,0-1.04-.08-1.5-.16-.58-.42-1.06-.78-1.43-.36-.37-.77-.64-1.22-.81-.45-.17-.92-.25-1.4-.23-.48,.02-.93,.14-1.34,.35-.41,.21-.76,.52-1.05,.92-.29,.4-.46,.89-.5,1.47Zm6.92,1.29c-.08-.08-.1-.14-.05-.18,.05-.04,.13-.06,.23-.06s.2,.02,.28,.06c.09,.04,.14,.1,.14,.18,.1,.7,.14,1.41,.12,2.12-.02,.71-.06,1.42-.12,2.13-.06,.71-.12,1.42-.18,2.12-.06,.7-.09,1.4-.09,2.11-.18,.06-.34,.1-.48,.12-.12,.02-.23,.03-.33,.03s-.15-.05-.15-.15c.16-1.4,.31-2.81,.44-4.23,.13-1.41,.2-2.83,.2-4.26Zm-.33-2.2c0-.08,.05-.14,.15-.18,.1-.04,.21-.06,.32-.06s.22,.02,.32,.06c.1,.04,.15,.1,.15,.18v8.15c0,.64,.02,1.33,.05,2.06,.03,.73,.15,1.42,.35,2.06,.14,.46,.35,.73,.63,.81,.28,.08,.59,.12,.93,.12,.14,.1,.22,.2,.24,.3,.02,.1,0,.19-.06,.27-.06,.08-.14,.13-.24,.15-.1,.02-.19-.01-.27-.09-.32,0-.68-.06-1.08-.18-.4-.12-.67-.27-.81-.45-.16-.46-.26-.92-.29-1.37-.03-.45-.04-.84-.04-1.16-.16-1.72-.26-3.5-.29-5.34-.03-1.83-.04-3.61-.04-5.34Zm.33,2.2c0-.08,.05-.15,.15-.23,.1-.07,.21-.12,.34-.14,.13-.02,.25,0,.35,.05,.1,.05,.15,.16,.15,.32v5.68c0,.54,.03,1.11,.08,1.71,.05,.6,.16,1.17,.33,1.7,.17,.53,.42,1,.75,1.41,.33,.41,.78,.7,1.34,.86,.14,.06,.21,.15,.2,.26-.01,.11-.07,.2-.17,.27-.1,.07-.22,.12-.35,.15-.13,.03-.24,0-.32-.08-.74-.16-1.33-.5-1.76-1.01-.43-.51-.75-1.12-.96-1.84-.21-.71-.34-1.49-.38-2.34-.04-.85-.04-1.69,0-2.53,.04-.83,.09-1.62,.15-2.36,.06-.74,.09-1.37,.09-1.89Zm1.89,10.35c0-1.88-.12-3.76-.35-5.64-.23-1.87-.42-3.76-.56-5.67-.18,0-.33,0-.45,.03-.1,.02-.19,.06-.26,.11-.07,.05-.06,.11,.04,.2,0,.94,.03,1.88,.11,2.83,.07,.94,.14,1.89,.22,2.83,.08,.94,.16,1.89,.23,2.84,.07,.95,.11,1.9,.11,2.84,.16,.02,.31,.01,.45-.03,.1-.02,.2-.05,.3-.11,.1-.05,.15-.12,.15-.22Z"/>
        <path d="M35.81,25.01c-.08,.06-.15,.08-.21,.06-.06-.02-.1-.06-.1-.12-.01-.06,0-.12,.04-.17,.04-.05,.13-.08,.27-.08,.64-.26,1.3-.55,1.98-.87,.68-.32,1.42-.55,2.23-.69,.24,0,.33,.09,.27,.27-.06,.18-.15,.27-.27,.27-.4,.06-.77,.15-1.11,.27-.34,.12-.68,.25-1.01,.38-.33,.13-.67,.26-1.01,.38-.34,.12-.7,.22-1.08,.3Zm-.3,.24c.1-.1,.2-.18,.3-.24,.22-.12,.39-.12,.51,0,.72,.4,1.28,.91,1.67,1.53,.39,.62,.68,1.3,.86,2.03,.18,.73,.29,1.49,.32,2.29,.03,.79,.04,1.55,.04,2.27,0,.06-.04,.13-.12,.2-.08,.07-.17,.12-.27,.15-.1,.03-.19,.04-.27,.03-.08,0-.12-.05-.12-.1,0-.72-.01-1.48-.05-2.27-.03-.79-.13-1.55-.32-2.29-.18-.73-.47-1.41-.87-2.04-.4-.63-.96-1.15-1.68-1.55Zm.54,13.65c-.14,0-.23-.02-.26-.07-.03-.05-.03-.11,0-.18,.03-.07,.09-.13,.2-.18,.1-.05,.21-.07,.33-.07h4.18c.14,0,.22,.03,.23,.07,0,.05-.01,.11-.06,.18-.05,.07-.11,.13-.2,.18-.08,.05-.15,.07-.21,.07h-4.21Zm1.59-11.28c0-.06,.04-.13,.12-.2,.08-.07,.17-.12,.27-.15,.1-.03,.19-.04,.27-.03,.08,.01,.12,.04,.12,.11,0,1.58,.08,3.15,.23,4.71,.15,1.55,.17,3.05,.04,4.5-.14,.78-.42,1.37-.83,1.76-.41,.39-1.02,.59-1.82,.59-.14,0-.22-.02-.23-.07-.01-.05,0-.11,.06-.18,.05-.07,.12-.13,.21-.18,.09-.05,.17-.07,.23-.07,.52,0,.9-.21,1.13-.63,.23-.42,.38-.92,.44-1.5,.06-.58,.08-1.16,.05-1.74-.03-.58-.05-1.04-.05-1.38-.12-.92-.19-1.84-.21-2.75-.02-.91-.03-1.83-.03-2.75Zm1.56-.78c0,.06-.04,.1-.12,.14-.08,.03-.17,.05-.27,.05s-.19-.02-.27-.05c-.08-.03-.12-.08-.12-.14,0-.28-.06-.59-.17-.93-.11-.34-.24-.64-.38-.9-.04-.04-.09-.1-.15-.18l-.36-.36h.51v.24c-.1,.12-.17,.25-.21,.39-.02,.06-.03,.11-.03,.15h-.54c.2-.06,.39-.09,.57-.09s.34,.03,.48,.09c.14,.06,.24,.16,.29,.29,.05,.13,.04,.3-.02,.5,0,.14-.1,.25-.3,.35-.2,.09-.36,.07-.48-.08-.28-.26-.54-.49-.77-.69-.23-.2-.42-.5-.56-.9-.1,0-.09-.04,.03-.12,.06-.04,.14-.08,.24-.12,.38,0,.73-.09,1.04-.27,.31-.18,.67-.27,1.07-.27,.12,0,.23,.01,.32,.03,.09,.02,.07,.1-.07,.24-.06,.12-.16,.3-.29,.54-.13,.24-.24,.49-.32,.74-.08,.25-.11,.48-.08,.69,.03,.21,.17,.35,.43,.41,.1,0,.13,.05,.09,.15-.02,.04-.05,.08-.09,.12h-.54c-.32-.06-.51-.2-.57-.41-.06-.21-.05-.45,.03-.71,.08-.26,.2-.53,.36-.81,.16-.28,.31-.52,.45-.72l.27,.27c-.4,0-.75,.05-1.05,.15-.3,.1-.65,.23-1.05,.39,.14-.16,.23-.25,.27-.27,.04-.02,.12-.03,.24-.03,.14,.28,.33,.51,.56,.68,.23,.17,.49,.39,.77,.65-.14,0-.28,0-.41,.03-.13,.02-.26,.1-.38,.24v-.78c-.14,0-.27,.04-.38,.11-.11,.07-.17,.04-.17-.11-.12-.14-.17-.36-.15-.66,.02-.3,.16-.52,.42-.66h.78c.4,.4,.68,.84,.83,1.32,.15,.48,.23,.92,.23,1.32Zm.28,11.55c0,.12-.04,.22-.12,.29-.08,.07-.17,.12-.27,.14-.1,.02-.19,.02-.27-.01-.08-.03-.12-.07-.12-.14,0-.92,.03-1.8,.09-2.63,.06-.83,.03-1.71-.09-2.63,.12,0,.25,0,.38-.03,.13-.02,.27-.1,.41-.24,0,.54-.05,.97-.17,1.29-.11,.32-.24,.68-.38,1.08v2.89c-.12,0-.2-.05-.24-.14-.04-.09-.13-.14-.27-.14,.26,0,.5-.02,.72-.06,.22-.04,.33-.19,.33-.45-.14-.28-.22-.54-.24-.77-.02-.23-.03-.42-.03-.56-.14-.52-.23-1.04-.27-1.56-.04-.52-.12-1.05-.24-1.59-.14-.52-.23-1.03-.27-1.53-.04-.5-.06-1-.06-1.49s0-.99,.03-1.49c.02-.5,.03-1.01,.03-1.53,0-.06,.04-.12,.12-.18,.08-.06,.17-.09,.27-.1,.1,0,.19,0,.27,.05,.08,.04,.12,.12,.12,.24,0,1.58,.04,3.16,.11,4.74,.07,1.57,.3,3.15,.71,4.74,.06,.4,.08,.72,.08,.96-.01,.24-.07,.44-.18,.59-.11,.15-.28,.27-.53,.35-.24,.08-.56,.15-.96,.21-.06,0-.11-.01-.15-.03-.08-.04-.12-.12-.12-.24,0-.4,0-.84,.03-1.31,.02-.47,.1-.91,.24-1.31,0-.4,.05-.8,.14-1.19,.09-.39,.14-.79,.14-1.19,0-.06,.04-.13,.12-.2,.08-.07,.17-.12,.27-.15,.1-.03,.19-.04,.27-.03,.08,.01,.12,.04,.12,.1,.12,.94,.15,1.86,.09,2.75-.06,.89-.09,1.73-.09,2.51Zm-.79-14.47c0-.12,.04-.22,.12-.28,.08-.07,.17-.11,.27-.12,.1-.01,.19,0,.27,.03,.08,.03,.12,.08,.12,.14,0,1.98,.09,3.96,.28,5.91,.19,1.96,.28,3.92,.28,5.91,0,.06-.04,.12-.12,.18-.08,.06-.18,.1-.3,.12-.11,.02-.21,0-.3-.04-.08-.05-.12-.14-.12-.26,0-1.99-.06-3.91-.17-5.79-.11-1.88-.23-3.8-.35-5.79Zm1.02-.24c-.06-.06-.06-.13-.02-.2,.05-.07,.12-.12,.2-.15,.08-.03,.16-.04,.24-.03,.08,.01,.12,.05,.12,.11,0,.8,.04,1.58,.12,2.35,.08,.76,.12,1.46,.12,2.11v4.48c.08,.34,.12,.67,.14,.99,0,.32,.01,.65,.01,.98s0,.66,.02,.99c0,.33,.05,.66,.13,.98,0,.52,.08,1.01,.26,1.47,.17,.46,.52,.76,1.04,.9,.14,.12,.13,.24-.04,.36-.17,.12-.33,.18-.47,.18-.6-.2-1.01-.52-1.23-.95-.22-.43-.36-.91-.41-1.43-.05-.52-.05-1.06,.01-1.62,.06-.56,.09-1.07,.09-1.53-.18-.92-.28-1.79-.3-2.6-.02-.81-.03-1.61-.03-2.39v-4.99Zm.78,2.62c-.06,0-.13,.01-.23,.05-.09,.03-.17,.05-.23,.06-.06,.01-.1,.01-.12,0-.02,0,0-.04,.09-.1,.32-.26,.68-.54,1.07-.84,.39-.3,.8-.58,1.22-.83,.42-.25,.87-.45,1.33-.59,.46-.14,.93-.18,1.39-.12,.32,0,.7,.05,1.13,.15,.43,.1,.85,.25,1.24,.44,.39,.19,.73,.44,1.02,.74,.29,.3,.47,.65,.53,1.05,.14,.52,.19,1.06,.14,1.61-.05,.55,0,1.15,.14,1.79,0,.66,.04,1.38,.13,2.15,.09,.77,.14,1.56,.14,2.36,0,.26-.04,.62-.11,1.08-.07,.46-.11,.92-.11,1.38s.06,.86,.2,1.2c.13,.34,.4,.51,.8,.51,.06,0,.08,.03,.06,.07-.02,.05-.06,.1-.12,.15-.06,.05-.14,.09-.22,.11-.09,.02-.18,0-.26-.06-.32,0-.57-.06-.74-.18-.17-.12-.29-.28-.36-.48-.07-.2-.09-.43-.06-.68,.03-.25,.08-.51,.13-.77,0-.94,0-1.83-.03-2.65-.02-.82-.1-1.69-.24-2.62v-3.43c0-.52-.03-.98-.09-1.37-.06-.39-.29-.72-.69-.98-.34-.26-.69-.5-1.06-.71-.36-.21-.73-.37-1.1-.47-.37-.1-.76-.13-1.16-.09-.4,.04-.79,.19-1.18,.45-.52,.16-.99,.4-1.42,.72-.42,.32-.84,.61-1.24,.87Zm4.75-1.83c.06,.06,.06,.12,.01,.18-.05,.06-.12,.11-.22,.13-.1,.03-.21,.05-.32,.05s-.2-.04-.25-.12c-.06,0-.15-.02-.27-.07-.12-.05-.25-.09-.39-.12-.14-.03-.27-.04-.39-.02-.12,.02-.21,.09-.27,.21-.06,.06-.12,.11-.18,.15-.1,.1-.21,.15-.33,.15-.04-.04-.07-.09-.09-.15-.06-.1-.03-.15,.09-.15,.26-.38,.66-.58,1.2-.6,.54-.02,1.01,.1,1.42,.36Zm1.32,2.11c0,.08-.04,.13-.12,.17-.08,.03-.17,.05-.27,.08-.12,.02-.25,.03-.39,.03,0-.26-.06-.52-.18-.78-.12-.26-.27-.51-.45-.74-.18-.23-.38-.45-.6-.65-.22-.2-.43-.36-.63-.48,.1-.04,.2-.08,.3-.12,.08-.04,.17-.08,.26-.11,.09-.03,.17-.05,.23-.05,.2,.14,.41,.31,.63,.5,.22,.19,.42,.4,.6,.63,.18,.23,.33,.48,.45,.74,.12,.26,.18,.52,.18,.78Zm-1.55,12.09c-.08,.06-.18,.11-.3,.14-.12,.03-.23,.05-.33,.05s-.17-.02-.21-.05c-.04-.03-.03-.07,.03-.14,.4-.4,.71-.82,.92-1.25,.22-.43,.38-.89,.49-1.37,.11-.48,.19-.98,.24-1.5,.05-.52,.1-1.08,.16-1.69,0-.92,0-1.89-.03-2.92-.02-1.02-.09-2.05-.21-3.1,0-.12,.13-.2,.39-.24,.1-.02,.23-.03,.39-.03,.14,1.32,.21,2.6,.21,3.82s-.07,2.5-.21,3.82c0,.78-.13,1.55-.39,2.32-.26,.76-.65,1.47-1.16,2.14Zm-.31,.54c-.12,0-.19-.04-.21-.12-.02-.08,0-.16,.04-.26,.05-.09,.12-.16,.21-.2,.09-.04,.18-.03,.26,.03,.64,0,1.33,.02,2.08,.06,.74,.04,1.44-.07,2.11-.33,.06-.06,.14-.08,.22-.06,.09,.02,.16,.05,.21,.11,.05,.05,.07,.1,.06,.15-.01,.05-.09,.08-.23,.08-.4,.2-.8,.34-1.19,.42-.39,.08-.79,.13-1.19,.15-.4,.02-.8,.02-1.19,0-.39-.02-.79-.03-1.19-.03Zm1.1-2.92c0-.12,.13-.2,.39-.24,.1-.02,.23-.03,.4-.03,0,.2,0,.43-.02,.68,0,.25-.03,.49-.06,.72-.03,.23-.08,.44-.15,.62-.07,.18-.18,.3-.32,.36-.26,.26-.51,.36-.74,.3-.23-.06-.43-.16-.59-.3l.3-.27c.12-.12,.27-.23,.45-.35,.18-.11,.36-.23,.54-.36,.18-.13,.35-.28,.52-.47,.16-.18,.27-.4,.33-.66,0-.26,0-.52,.03-.78,.02-.26,.09-.53,.21-.81,.06-.38,.15-.76,.26-1.13,.12-.37,.22-.74,.32-1.1,.1-.36,.16-.72,.2-1.08,.04-.36,.03-.74-.03-1.14,.14-.04,.28-.07,.4-.09,.1-.02,.2-.02,.3-.01,.09,0,.14,.05,.14,.1,0,.52-.05,1.05-.16,1.58-.11,.53-.24,1.06-.38,1.58-.14,.52-.24,1.09-.3,1.71-.06,.62-.22,1.19-.48,1.72-.14,.12-.28,.25-.42,.38-.14,.13-.35,.27-.63,.41-.2,.12-.35,.22-.45,.3-.1,.08-.17,.16-.21,.26-.04,.09,0,.17,.15,.23-.14,.14-.25,.21-.35,.21s-.06-.07,.08-.21c.14-.4,.22-.75,.24-1.05,.02-.3,.03-.65,.03-1.05Zm1.57-7.88c0,.12-.04,.22-.12,.29-.08,.07-.17,.12-.27,.14-.1,.02-.19,.01-.27-.01-.08-.03-.12-.08-.12-.14,.14-.66,.18-1.35,.11-2.08-.07-.72-.37-1.35-.89-1.89-.06,0-.07,0-.03-.03,.04-.02,.11-.05,.21-.08,.1-.03,.21-.06,.33-.09,.12-.03,.21-.04,.27-.04,.2,.14,.42,.28,.67,.42,.24,.14,.48,.3,.71,.48,.23,.18,.44,.39,.62,.63,.18,.24,.3,.52,.36,.84,0,.52-.06,1.03-.18,1.52-.12,.49-.32,.94-.6,1.34,0,.08-.04,.15-.12,.21-.08,.06-.17,.11-.27,.14-.1,.03-.19,.05-.27,.05s-.12-.03-.12-.09c0-.4,0-.84-.03-1.32-.02-.48-.1-.92-.24-1.32-.26-.52-.56-1.03-.91-1.53-.34-.5-.65-.95-.93-1.35-.06-.06-.07-.12-.02-.2,.05-.07,.12-.12,.2-.15,.08-.03,.16-.04,.24-.03,.08,0,.12,.04,.12,.1,.4,.4,.82,.85,1.26,1.35,.43,.5,.71,1.01,.83,1.53,.14,.4,.22,.84,.24,1.31,.02,.47,.03,.91,.03,1.31h-.78c.26-.4,.46-.88,.59-1.43,.13-.55,.2-1.03,.2-1.43-.06-.26-.18-.49-.36-.69-.18-.2-.39-.38-.62-.53-.23-.15-.47-.28-.71-.38-.24-.1-.46-.18-.67-.24,.12-.16,.25-.26,.38-.3,.13-.04,.27-.12,.41-.24,.26,.26,.45,.55,.57,.87,.12,.32,.2,.65,.23,.99,.03,.34,.04,.69,.02,1.05-.02,.36-.03,.7-.03,1.02Zm-.51,8.15c0,.06-.04,.12-.13,.18-.08,.06-.18,.1-.3,.13-.11,.03-.21,.05-.3,.05s-.12-.03-.12-.09c0-.6,.06-1.18,.18-1.74,.12-.56,.27-1.12,.45-1.68,.18-.56,.38-1.12,.59-1.68,.21-.56,.42-1.13,.62-1.71,0-.14,.13-.23,.4-.27,.12-.02,.27-.03,.43-.03,0,.66,.01,1.38,.03,2.17,.02,.78-.03,1.54-.14,2.29-.11,.74-.34,1.42-.69,2.05-.35,.62-.88,1.09-1.6,1.41h-.51c-.06-.32-.06-.62-.02-.89,.05-.27,.14-.52,.27-.75,.13-.23,.28-.45,.47-.66,.18-.21,.37-.42,.57-.62,.14-.04,.27-.07,.39-.09,.1-.02,.19-.02,.27-.01,.08,.01,.12,.04,.12,.11-.12,.66-.26,1.32-.41,1.98-.15,.66-.36,1.32-.62,1.99,0,.06-.04,.12-.12,.18-.08,.06-.18,.11-.28,.13-.11,.03-.21,.05-.29,.05s-.12-.04-.12-.12c.06-.26,.2-.46,.41-.6,.21-.14,.44-.23,.71-.29,.26-.05,.53-.06,.81-.03,.28,.03,.52,.08,.72,.13,.06,0,.08,.02,.04,.05-.03,.03-.07,.07-.11,.1-.06,.04-.13,.08-.21,.12-.14,0-.27,0-.37,.03-.11,.02-.16,.1-.16,.24v-.27c0-.14-.04-.23-.11-.27-.07-.04-.11-.13-.11-.27,0-.06,.04-.11,.12-.13,.08-.03,.17-.04,.27-.04s.19,.01,.27,.04c.08,.03,.12,.07,.12,.13,0,.28-.08,.49-.23,.62-.15,.13-.43,.2-.83,.2-.1,0-.13-.04-.09-.12,.02-.04,.05-.09,.09-.15,.14-.14,.31-.22,.52-.24,.21-.02,.38-.03,.52-.03l-.27,.27c-.06,0-.15,0-.27-.03-.12-.02-.25-.03-.38-.03s-.25,.02-.37,.06c-.12,.04-.21,.13-.27,.27-.14,0-.27,.04-.41,.12-.13,.08-.27,.12-.41,.12,.28-.64,.5-1.29,.65-1.96,.15-.66,.29-1.31,.41-1.95,.14-.16,.23-.25,.27-.27,.04-.02,.13-.03,.27-.03-.4,.4-.72,.81-.94,1.23-.22,.42-.26,.89-.12,1.41h-.54c.59-.26,1.02-.69,1.28-1.29,.26-.6,.43-1.26,.51-1.99,.08-.72,.1-1.45,.07-2.18-.03-.73-.04-1.36-.04-1.88h.84c-.52,1.04-.96,2.1-1.31,3.17-.35,1.07-.53,2.2-.53,3.38Zm.78,1.83c0,.06-.04,.12-.12,.18-.08,.06-.17,.1-.27,.14-.1,.03-.19,.04-.27,.04s-.12-.03-.12-.09c.06-.52,.09-1.03,.08-1.53,0-.5,0-.99,.01-1.47,.02-.48,.07-.95,.17-1.41,.09-.46,.27-.92,.52-1.38,0-.12,.1-.19,.29-.21,.19-.02,.35-.03,.5-.03,.08,.3,.17,.68,.26,1.13,.09,.45,.15,.92,.18,1.41,.03,.49,.02,.97-.03,1.43-.05,.46-.16,.86-.35,1.19-.18,.33-.45,.56-.8,.69-.35,.13-.81,.11-1.37-.07-.08-.06-.09-.13-.04-.2,.05-.07,.12-.12,.22-.16l.36-.18c.12,.06,.23,.12,.33,.18,.1,.06,.19,.09,.26,.09s.12-.03,.15-.1c.03-.07,.04-.21,.04-.41v-3.16c-.14-.92-.31-1.84-.5-2.75-.19-.91-.29-1.84-.29-2.78-.06-.06-.07-.12-.03-.18,.04-.06,.1-.11,.18-.14,.08-.03,.16-.04,.24-.03,.08,0,.12,.05,.12,.11,.06,.72,.15,1.43,.27,2.12,.12,.69,.24,1.38,.36,2.08,.12,.69,.22,1.38,.3,2.07,.08,.69,.12,1.4,.12,2.12,0,.66-.18,1.08-.54,1.26-.36,.18-.8,.2-1.32,.06,0-.14,.06-.23,.17-.27,.11-.04,.22-.13,.35-.27,.28,.14,.48,.16,.6,.05,.12-.11,.18-.3,.18-.56,.15-.26,.23-.57,.25-.92,.02-.35,.03-.66,.03-.92-.15-.4-.24-.84-.28-1.32-.04-.48-.12-.92-.24-1.32h.81c-.26,.4-.45,.83-.57,1.28-.12,.45-.2,.92-.23,1.4-.03,.48-.04,.96-.01,1.44,.02,.48,.03,.95,.03,1.41Zm-.55-12.6c0-.12,.13-.2,.38-.24,.1-.02,.22-.03,.38-.03,0,1.58-.04,3.16-.11,4.74-.07,1.57-.11,3.15-.11,4.74,0,.06-.04,.12-.12,.18-.08,.06-.17,.11-.27,.14-.1,.03-.19,.04-.27,.03-.08,0-.12-.04-.12-.1,0-1.58,.04-3.16,.12-4.74,.08-1.57,.12-3.14,.12-4.71Z"/>
        <path d="M54.12,27.11c.06-.08,.16-.15,.29-.21,.13-.06,.25-.1,.35-.12,.1-.02,.18,0,.24,.04,.06,.05,.05,.15-.03,.29-.06,.36-.17,.72-.33,1.07-.16,.35-.31,.71-.45,1.08-.14,.37-.25,.76-.33,1.16-.08,.4-.09,.81-.03,1.23,.16,.7,.36,1.46,.59,2.27,.23,.81,.42,1.58,.56,2.3,.08,.14,.1,.25,.04,.32-.05,.07-.12,.11-.21,.12-.09,0-.18,0-.27-.03-.09-.03-.14-.08-.14-.14-.28-.86-.55-1.72-.81-2.57-.26-.85-.46-1.7-.6-2.54,0-.36,.04-.72,.13-1.08,.09-.36,.2-.72,.32-1.07,.12-.35,.25-.7,.38-1.05,.13-.35,.24-.71,.32-1.07Zm1.11-2.02c.06-.06,.15-.09,.27-.11,.12,0,.23,0,.32,.05,.09,.04,.15,.09,.17,.15,.02,.06-.04,.13-.18,.21-.72,.7-1.19,1.47-1.4,2.3-.21,.83-.32,1.68-.32,2.54,0,.14-.04,.25-.13,.33-.09,.08-.18,.13-.29,.14-.11,0-.2,0-.29-.03-.09-.03-.13-.08-.13-.16,0-1.14,.12-2.15,.35-3.02,.23-.87,.78-1.67,1.64-2.39Zm2.86-.84c.28,0,.42,.1,.42,.29s-.14,.29-.42,.29c-.84,0-1.53,.25-2.08,.75-.54,.5-.95,1.14-1.22,1.92-.27,.78-.42,1.65-.44,2.62-.02,.96,.04,1.91,.2,2.84,.15,.93,.39,1.79,.71,2.57,.32,.78,.7,1.38,1.14,1.8,.06,.08,.07,.15,.02,.21-.05,.06-.13,.11-.24,.15-.11,.04-.23,.05-.35,.04-.12,0-.22-.04-.3-.1-.5-.5-.9-1.09-1.19-1.78-.29-.68-.51-1.4-.66-2.16-.15-.76-.23-1.54-.24-2.33-.01-.79,.02-1.55,.11-2.27,.14-.64,.33-1.25,.56-1.83,.23-.58,.52-1.1,.87-1.55,.35-.45,.78-.81,1.29-1.07,.51-.26,1.12-.39,1.82-.39Zm6.53,1.14c.06,.06,.06,.13,.01,.2-.05,.07-.13,.12-.24,.15-.11,.03-.23,.04-.35,.04s-.21-.04-.27-.12c-.5-.28-1.07-.53-1.71-.75-.64-.22-1.29-.35-1.95-.38-.66-.03-1.3,.06-1.91,.27-.61,.21-1.13,.6-1.55,1.16-.7,.86-1.2,1.88-1.49,3.05-.29,1.17-.37,2.33-.22,3.47,0,.5,.02,1.08,.05,1.74,.03,.66,.12,1.29,.28,1.9,.16,.6,.41,1.13,.75,1.58,.34,.45,.83,.71,1.47,.77,.22,0,.49,.02,.8,.05,.31,.03,.63,.05,.96,.05s.67-.03,1.01-.08c.34-.05,.65-.15,.93-.29,.58-.16,1.1-.43,1.55-.8,.45-.37,.89-.77,1.31-1.19,.14-.08,.28-.11,.41-.09,.13,.02,.23,.07,.3,.14,.07,.07,.1,.16,.09,.25-.01,.1-.09,.18-.23,.24-.58,.44-1.22,.9-1.93,1.37-.7,.47-1.48,.78-2.34,.92-.58,.16-1.2,.24-1.85,.24s-1.27-.08-1.85-.24c-.64-.2-1.15-.57-1.52-1.1-.37-.53-.65-1.12-.83-1.77-.18-.65-.28-1.33-.3-2.03-.02-.7,0-1.34,.09-1.93,0-.64,.04-1.35,.13-2.12,.09-.77,.25-1.52,.48-2.26,.23-.73,.55-1.4,.95-2,.4-.6,.92-1.04,1.56-1.32,.56-.28,1.16-.46,1.79-.53,.63-.07,1.27-.06,1.91,.03,.64,.09,1.27,.25,1.89,.48,.62,.23,1.22,.53,1.8,.89Zm-10.53,4.54c0-.06,.04-.12,.13-.2,.09-.07,.19-.11,.29-.12,.1,0,.2,0,.29,.05,.09,.04,.13,.13,.13,.27,0,.28,.04,.52,.11,.72,.07,.2,.16,.39,.27,.57,.11,.18,.23,.37,.37,.56,.14,.19,.28,.43,.42,.71,.16,.44,.18,.88,.05,1.32-.13,.44-.34,.95-.62,1.53,0-.1-.05-.18-.15-.24-.04-.02-.08-.03-.12-.03h.84c.16-.16,.29-.19,.38-.09,.09,.1,.07,.22-.08,.36-.16,.16-.26,.31-.3,.44-.04,.13-.13,.28-.27,.44,0-.16-.01-.25-.03-.27-.02-.02-.11-.03-.27-.03,.15-.14,.35-.22,.57-.24,.23-.02,.41-.03,.54-.03,0-.16,.1-.23,.3-.2,.2,.03,.3,.19,.3,.47-.17,.16-.31,.35-.43,.57-.12,.22-.17,.41-.17,.57-.06,.06-.15,.11-.28,.15-.13,.04-.24,.06-.34,.06s-.18-.02-.24-.06c-.06-.04-.05-.09,.03-.15,.14-.28,.23-.52,.27-.71,.04-.19,.14-.43,.3-.71,.15,.14,.24,.22,.28,.24,.04,.02,.14,.03,.28,.03-.29,.16-.52,.3-.72,.41-.19,.11-.43,.16-.72,.16-.14,0-.28,0-.4-.03-.12-.02-.18-.1-.18-.24,.16-.28,.28-.51,.35-.68,.07-.17,.25-.32,.53-.47,0,.06,0,.12,.03,.18,.04,.14,.12,.27,.24,.39h-1.13c-.06-.04-.11-.1-.15-.18-.08-.16-.12-.29-.12-.39,.14-.28,.31-.62,.52-1.01,.21-.39,.32-.73,.32-1.01-.15-.28-.29-.52-.43-.71-.14-.19-.29-.43-.43-.71-.29-.28-.46-.57-.51-.86-.05-.29-.08-.58-.08-.86Zm2.59,7.13c0,.06-.04,.13-.14,.2-.09,.07-.19,.12-.29,.15-.1,.03-.2,.05-.29,.05s-.13-.04-.13-.12c-.16-.42-.36-.85-.59-1.29-.23-.44-.42-.95-.56-1.54h.57c.14,.22,.27,.49,.39,.81,.12,.32,.25,.65,.39,.99,.14,.34,.31,.66,.5,.95,.19,.29,.43,.51,.71,.65-.08,0-.16,.02-.23,.04-.07,.03-.12,.07-.17,.11-.08,.06-.14,.11-.18,.15,.14-.16,.26-.37,.36-.63,.1-.26,.07-.53-.09-.81-.14-.14-.23-.24-.27-.32-.04-.07-.14-.24-.29-.53h.87c0,.28,.04,.52,.11,.71,.07,.19,.16,.37,.28,.53,.12,.16,.27,.32,.44,.48,.17,.16,.37,.35,.59,.57,0,.06-.01,.11-.03,.15-.04,.08-.12,.12-.24,.12l-.3-.27h1.44c.14,0,.22,.03,.24,.09,.02,.06,0,.13-.06,.2-.06,.07-.13,.13-.23,.19-.09,.06-.18,.09-.25,.09h-1.41c-.06-.04-.1-.09-.12-.15-.06-.1-.02-.15,.12-.15,0-.14,0-.22,.03-.24,.02-.02,.1-.03,.24-.03-.12,0-.2,.05-.24,.15-.02,.04-.03,.08-.03,.12-.44-.42-.79-.81-1.04-1.16-.25-.35-.38-.82-.38-1.4,.16-.04,.3-.07,.42-.09,.1-.02,.2-.02,.29-.01,.09,.01,.13,.04,.13,.11,0,.08,.03,.16,.09,.22,.06,.07,.12,.15,.2,.24,.07,.09,.13,.19,.2,.3,.06,.11,.09,.24,.09,.38,0,.28-.06,.5-.18,.66-.12,.16-.26,.32-.4,.48-.12,.04-.23,.07-.31,.09-.18,.04-.28,0-.28-.09-.35-.14-.64-.35-.86-.62-.22-.27-.39-.58-.53-.92-.14-.34-.25-.7-.34-1.07-.09-.37-.16-.74-.22-1.1-.08,0-.1-.01-.05-.04,.05-.03,.12-.06,.21-.08,.09-.02,.18-.03,.27-.01,.09,0,.14,.05,.14,.13,.28,.42,.55,.85,.81,1.28,.26,.43,.46,.86,.6,1.28Zm1.99-12.81c.14-.06,.27-.08,.37-.06,.11,.02,.19,.06,.24,.11,.05,.05,.07,.1,.07,.15s-.04,.08-.12,.08c-.78,.28-1.45,.66-2,1.14-.55,.48-.97,1.03-1.26,1.64-.29,.61-.43,1.26-.42,1.96,0,.69,.2,1.4,.56,2.12,.2,.56,.42,1.15,.65,1.77,.23,.62,.48,1.23,.75,1.83,.27,.6,.57,1.18,.9,1.74,.33,.56,.71,1.05,1.13,1.47,.06,.06,.07,.13,.02,.2-.05,.07-.13,.12-.24,.15-.11,.03-.23,.05-.35,.05s-.22-.04-.3-.12c-.28-.28-.52-.58-.71-.9-.19-.32-.37-.65-.53-.98-.16-.33-.32-.67-.48-1.02-.16-.35-.34-.71-.54-1.07-.14-.36-.31-.74-.51-1.13-.2-.39-.39-.79-.57-1.19-.18-.4-.33-.82-.45-1.25-.12-.43-.18-.86-.18-1.28,0-.64,.1-1.24,.3-1.8,.2-.56,.48-1.08,.84-1.55,.36-.47,.78-.88,1.26-1.22,.48-.34,1-.62,1.56-.84Zm-3.97,7.7c0-.08,.05-.15,.13-.21,.09-.06,.19-.1,.29-.12,.1-.02,.2,0,.29,.04,.09,.05,.14,.15,.14,.29,.08,.42,.2,.81,.36,1.17,.16,.36,.34,.71,.53,1.05,.19,.34,.39,.68,.59,1.01,.2,.33,.37,.68,.51,1.04,.08,.06,.09,.12,.03,.18-.06,.06-.14,.1-.24,.12-.1,.02-.22,.01-.35-.03-.13-.04-.23-.13-.29-.27-.14-.36-.31-.71-.51-1.04-.2-.33-.4-.67-.6-1.01-.2-.34-.38-.69-.54-1.05-.16-.36-.27-.75-.33-1.17Zm1.95-.87c0,.08-.04,.14-.14,.18-.09,.04-.18,.07-.28,.09-.12,.02-.26,.03-.42,.03,0-.22-.01-.45-.05-.69-.03-.24-.05-.49-.07-.74-.02-.25-.03-.5-.02-.74,0-.24,.06-.47,.13-.69,.14-.42,.28-.8,.42-1.13,.14-.33,.28-.72,.42-1.16,.14-.58,.36-1.07,.66-1.46,.3-.39,.74-.66,1.32-.8,.28,0,.37,.05,.28,.14-.09,.09-.27,.14-.56,.14-.22,.06-.4,.22-.56,.48-.15,.26-.28,.55-.37,.87-.1,.32-.19,.65-.27,.98-.08,.33-.16,.6-.24,.8-.14,.28-.23,.57-.27,.86-.04,.29-.06,.59-.06,.89s0,.61,.03,.93c.02,.32,.03,.66,.03,1.02Zm4.27-6.83c.14,0,.22,.01,.24,.05,.02,.03,0,.07-.06,.12-.06,.05-.13,.11-.22,.18-.09,.07-.17,.15-.23,.23-1.14,.14-2.05,.51-2.72,1.1-.67,.59-1.01,1.46-1.01,2.6-.14,.86-.22,1.76-.24,2.71-.02,.94-.03,1.84-.03,2.71,0,.12-.09,.2-.28,.24-.07,.02-.16,.03-.26,.03,0-.86-.03-1.7-.1-2.53-.07-.82-.03-1.59,.1-2.32,0-.56,.02-1.07,.07-1.52,.05-.45,.2-.89,.47-1.31,.58-.72,1.22-1.25,1.92-1.58,.7-.33,1.48-.57,2.35-.71Zm.3,.27c-.7,0-1.35,.03-1.94,.11-.59,.07-1.18,.33-1.76,.77-.28,.28-.5,.64-.65,1.08-.15,.44-.27,.9-.36,1.38-.09,.48-.16,.95-.21,1.41-.05,.46-.11,.87-.2,1.23,0,1,.12,1.94,.36,2.81,.24,.87,.5,1.74,.78,2.6,.14,.42,.35,.8,.62,1.13,.27,.33,.58,.61,.92,.84,.34,.23,.7,.42,1.07,.56,.37,.14,.74,.25,1.1,.33,.06,0,.14-.01,.24-.04,.1-.03,.19-.08,.26-.13,.07-.06,.12-.13,.13-.2,.02-.07,0-.14-.06-.2-.78-.14-1.44-.41-1.99-.81-.54-.4-.99-.89-1.35-1.46-.36-.57-.64-1.2-.83-1.89-.19-.69-.33-1.39-.41-2.09,0-.72,.05-1.42,.15-2.11,.1-.68,.15-1.31,.15-1.9,.14-.28,.23-.6,.27-.95,.04-.35,.14-.61,.3-.77,.14-.28,.33-.51,.57-.69,.24-.18,.5-.33,.78-.44,.28-.11,.58-.19,.89-.23,.31-.04,.61-.06,.89-.06,.06,0,.14-.02,.22-.05,.09-.03,.17-.06,.23-.1,.06-.04,.08-.08,.06-.11-.02-.03-.1-.04-.24-.04Zm2.29-9.38c0-.14,.11-.26,.32-.36,.21-.1,.4-.07,.56,.09,.56,.42,1.14,.77,1.73,1.05,.59,.28,1.25,.49,1.97,.63,.14,0,.2,.02,.18,.04-.02,.03-.08,.07-.17,.11-.09,.04-.2,.07-.32,.11-.12,.03-.21,.04-.27,.04-.72-.16-1.39-.38-2.02-.65-.62-.27-1.28-.63-1.98-1.07,0-.06,.05-.11,.14-.15,.09-.04,.19-.06,.3-.06s.21,.02,.3,.06c.09,.04,.13,.09,.13,.15,.14,1.14,.27,2.24,.38,3.28,.11,1.04,.16,2.14,.16,3.28,.08,.58,.1,1.15,.06,1.71-.04,.56-.09,1.12-.15,1.67-.06,.55-.1,1.09-.11,1.62,0,.53,.06,1.05,.2,1.55,0,.56,.06,1.07,.18,1.52,.12,.45,.25,.89,.39,1.31,0,.44-.04,.92-.13,1.43-.09,.51-.13,.99-.13,1.43,0,.86,.04,1.77,.13,2.74,.09,.96,.13,1.95,.13,2.95,0,.08-.04,.15-.13,.21-.09,.06-.19,.1-.28,.12-.1,.02-.2,0-.29-.05-.09-.05-.13-.15-.13-.29,0-1-.04-2.05-.14-3.13-.09-1.08-.13-2.12-.13-3.13,.26-1.14,.26-2.28,0-3.43-.16-.42-.25-.84-.27-1.26-.02-.42-.03-.85-.03-1.29,0-1.14,.04-2.24,.11-3.28,.07-1.04,.03-2.14-.11-3.28,0-1-.05-1.95-.16-2.84-.11-.89-.25-1.84-.41-2.84Zm.87,.87c-.08-.08-.1-.15-.05-.21,.05-.06,.12-.11,.21-.15,.09-.04,.18-.05,.26-.05,.08,.01,.12,.05,.12,.11,.16,1.14,.36,2.22,.59,3.23,.23,1.01,.42,2.02,.56,3.02,.16,1.02,.25,2.04,.27,3.05,.02,1.01,.03,2.09,.03,3.23,0,.14-.1,.21-.29,.21s-.29-.07-.29-.21c-.16-1.02-.2-2.08-.12-3.19,.08-1.1,.12-2.23,.12-3.37,0-.36,.04-.79,.11-1.28,.07-.49,.11-.99,.13-1.49,.02-.5-.02-.97-.12-1.4-.1-.43-.33-.76-.69-.98h.57c0,.58,.03,1.15,.08,1.71,.05,.56,.21,1.13,.5,1.71,0,.08-.05,.15-.13,.21-.09,.06-.19,.11-.3,.15-.11,.04-.21,.05-.3,.04-.09-.01-.14-.04-.14-.11-.28-.58-.45-1.2-.5-1.86-.05-.66-.08-1.28-.08-1.86,0-.14,.11-.22,.32-.24,.21-.02,.4-.03,.56-.03,.28,.22,.49,.47,.62,.74,.13,.27,.21,.57,.24,.89,.03,.32,.03,.66,.01,1.01-.02,.35-.03,.71-.03,1.07,0,1.28-.05,2.62-.13,4.01-.09,1.4-.14,2.81-.14,4.26h-.57c-.08-.5-.12-1-.13-1.5,0-.5-.02-1-.04-1.5-.02-.5-.06-1-.11-1.49-.05-.49-.15-.99-.29-1.49-.16-1.14-.34-2.22-.54-3.23-.2-1.01-.3-2.02-.3-3.02Zm.54,5.96c.1-.04,.19-.07,.27-.09,.2-.04,.3-.01,.3,.09,0,.72-.01,1.44-.03,2.15-.02,.71-.02,1.42,0,2.14,.02,.71,.07,1.42,.15,2.13,.08,.71,.23,1.42,.45,2.12l-.84,.3c-.42-1.42-.61-2.86-.57-4.32,.04-1.45,.13-2.96,.27-4.53Zm2.29,17.38c0,.14-.06,.22-.17,.24s-.25,.03-.41,.03h-1.71c-.14,0-.21,0-.21-.03s.07-.1,.21-.24h2.29Zm-1.14,0c0,.14-.04,.25-.13,.33-.09,.08-.19,.12-.29,.13-.1,.01-.19,0-.28-.03-.09-.03-.13-.08-.13-.17,0-.7-.04-1.41-.12-2.13-.08-.72-.04-1.43,.12-2.14,.14-.58,.33-1.21,.56-1.89,.23-.68,.43-1.37,.59-2.07,.16-.06,.3-.1,.42-.12,.1-.02,.19-.03,.28-.01,.09,.01,.14,.06,.14,.14-.14,.56-.28,1.12-.42,1.68-.14,.56-.28,1.13-.42,1.71-.28,.86-.4,1.66-.36,2.39,.04,.73,.06,1.46,.06,2.18Zm-.27-20.78c0-.08,.05-.14,.14-.18,.09-.04,.19-.07,.28-.09,.12-.02,.26-.03,.42-.03-.14,1.56-.23,3.13-.27,4.69-.04,1.56-.14,3.14-.3,4.72,0,1.29,0,2.61,.03,3.97,.02,1.36,.11,2.7,.27,4,0,.08-.05,.13-.15,.16-.1,.03-.2,.05-.3,.08-.12,.02-.26,.03-.42,.03-.14-1.44-.22-2.87-.24-4.27-.02-1.4-.03-2.83-.03-4.27,.14-1.44,.23-2.92,.27-4.42,.04-1.5,.14-2.97,.3-4.39Zm.84-2.01c0-.06,.05-.11,.14-.15,.09-.04,.19-.06,.3-.06s.21,.02,.3,.06c.09,.04,.14,.09,.14,.15,0,3.01-.01,6.06-.03,9.14-.02,3.09-.11,6.22-.27,9.38,0,.12-.1,.2-.3,.24-.08,.02-.17,.03-.27,.03-.14-.14-.23-.22-.27-.24-.04-.02-.14-.03-.3-.03,.16-.16,.31-.25,.44-.27,.13-.02,.27-.03,.44-.03-.08,.36-.13,.72-.14,1.08,0,.36-.01,.72-.01,1.07s0,.7-.01,1.05c-.01,.35-.06,.71-.14,1.07,0,.08-.05,.15-.13,.21-.09,.06-.19,.11-.29,.15-.1,.04-.2,.05-.28,.04-.09,0-.14-.04-.14-.11,.14-.36,.22-.73,.24-1.11,.02-.38,.02-.77,0-1.16-.02-.39-.03-.78-.04-1.17,0-.39,.02-.77,.08-1.13,0-.12,.09-.2,.27-.24,.08-.02,.18-.03,.3-.03,.16,.14,.26,.22,.3,.24,.04,.02,.13,.03,.27,.03-.14,0-.28,.05-.42,.15-.14,.1-.28,.15-.42,.15,.14-3.17,.22-6.26,.24-9.26,.02-3.01,.03-6.1,.03-9.26Zm-.84,11.4c0-.06,.05-.11,.14-.15,.09-.04,.19-.06,.28-.06s.2,.02,.29,.06c.09,.04,.13,.09,.13,.15,0,.42-.04,.85-.11,1.28-.07,.43-.03,.86,.11,1.28,.16,.44,.35,.83,.56,1.16,.21,.33,.32,.71,.32,1.13,.06,.36,.08,.7,.06,1.02-.02,.32-.07,.64-.13,.96-.07,.32-.16,.64-.26,.96-.1,.32-.18,.66-.24,1.02,0,.08-.04,.14-.14,.18-.09,.04-.19,.06-.3,.06s-.21-.02-.3-.06c-.09-.04-.13-.1-.13-.18,.28-.84,.47-1.69,.57-2.54,.1-.85,0-1.71-.27-2.57-.28-.58-.45-1.17-.5-1.76-.05-.59-.08-1.24-.08-1.94Zm.57,6.56c.16-.06,.3-.1,.42-.12,.1-.02,.19-.03,.28-.01,.09,0,.14,.05,.14,.13,0,.36-.01,.73-.03,1.11-.02,.38-.03,.77-.03,1.16s.03,.78,.07,1.16c.05,.38,.15,.75,.29,1.11,0,.08-.04,.15-.14,.21-.09,.06-.19,.11-.3,.15-.11,.04-.21,.05-.3,.04-.09,0-.14-.04-.14-.11-.28-.72-.4-1.49-.35-2.32,.05-.82,.08-1.66,.08-2.53Zm1.98-17.95c.12,0,.16,.05,.12,.15-.02,.06-.06,.11-.12,.15-.28,0-.5,.04-.66,.14-.16,.09-.32,.14-.48,.14h-.57s.1-.08,.18-.12c.06-.04,.12-.07,.18-.11,.06-.03,.13-.04,.21-.04,.04,0,.1,0,.18-.03,.1-.02,.23-.11,.39-.27h.57Z"/>
        <path d="M70.49,34.15c0-.12,.04-.22,.12-.29,.08-.07,.18-.1,.29-.1s.2,.03,.29,.1c.08,.07,.12,.17,.12,.29,0,.82,.04,1.62,.12,2.41,.08,.78,.12,1.58,.12,2.4,0,.06-.04,.11-.12,.14-.08,.03-.17,.04-.27,.04s-.19-.02-.27-.04c-.08-.03-.12-.08-.12-.14,0-.82-.05-1.62-.13-2.4-.09-.78-.14-1.58-.14-2.41Zm0,0c0-.12,.04-.22,.12-.29,.08-.07,.18-.1,.29-.1s.2,.03,.29,.1c.08,.07,.12,.17,.12,.29,0,.82,.04,1.62,.12,2.41,.08,.78,.12,1.58,.12,2.4,0,.06-.04,.11-.12,.14-.08,.03-.17,.04-.27,.04s-.19-.02-.27-.04c-.08-.03-.12-.08-.12-.14,0-.82-.05-1.62-.13-2.4-.09-.78-.14-1.58-.14-2.41Zm7.19,1.87c0,.4-.06,.79-.17,1.17-.11,.38-.23,.7-.35,.96-.28,.4-.58,.66-.9,.78-.32,.12-.65,.16-.98,.12-.33-.04-.66-.15-.99-.33-.33-.18-.63-.37-.89-.57-.26-.2-.5-.46-.71-.78-.21-.32-.39-.66-.56-1.02-.16-.36-.31-.73-.45-1.11-.14-.38-.27-.74-.39-1.08,0-.06-.04-.11-.12-.15-.08-.04-.18-.06-.29-.06s-.2,.02-.29,.06c-.08,.04-.12,.09-.12,.15,.2,.6,.42,1.19,.67,1.77,.24,.58,.53,1.11,.86,1.59,.33,.48,.72,.9,1.16,1.25,.44,.35,.97,.59,1.57,.71,.54,.14,1.04,.12,1.49-.05,.45-.17,.85-.43,1.19-.78,.34-.35,.61-.76,.8-1.23,.19-.47,.29-.94,.29-1.4,0-.06-.04-.11-.12-.14-.08-.03-.18-.05-.3-.05s-.21,.02-.3,.05c-.08,.03-.12,.08-.12,.14Zm0,0c0,.4-.06,.79-.17,1.17-.11,.38-.23,.7-.35,.96-.28,.4-.58,.66-.9,.78-.32,.12-.65,.16-.98,.12-.33-.04-.66-.15-.99-.33-.33-.18-.63-.37-.89-.57-.26-.2-.5-.46-.71-.78-.21-.32-.39-.66-.56-1.02-.16-.36-.31-.73-.45-1.11-.14-.38-.27-.74-.39-1.08,0-.06-.04-.11-.12-.15-.08-.04-.18-.06-.29-.06s-.2,.02-.29,.06c-.08,.04-.12,.09-.12,.15,.2,.6,.42,1.19,.66,1.77,.24,.58,.53,1.11,.86,1.59,.33,.48,.72,.9,1.16,1.25,.44,.35,.96,.59,1.56,.71,.54,.14,1.04,.12,1.49-.05,.45-.17,.85-.43,1.19-.78,.34-.35,.61-.76,.81-1.23,.2-.47,.3-.94,.3-1.4,0-.06-.04-.11-.12-.14-.08-.03-.18-.05-.3-.05s-.21,.02-.3,.05c-.08,.03-.12,.08-.12,.14Zm-5.32-9.86c.2,.94,.59,1.72,1.16,2.34,.57,.62,1.2,1.2,1.88,1.73,.68,.53,1.35,1.07,2.02,1.62,.66,.55,1.19,1.23,1.59,2.03,.34,.66,.44,1.34,.31,2.03-.13,.69-.41,1.3-.84,1.83-.43,.53-.98,.94-1.64,1.23-.66,.29-1.36,.37-2.1,.23-.34-.06-.69-.15-1.04-.26-.35-.11-.7-.19-1.05-.24-.35-.05-.69-.05-1.01,.01-.32,.06-.61,.22-.87,.48-.06,.06-.08,.09-.06,.1,.02,.01,.07,.01,.13,0,.07,0,.15-.03,.24-.06,.09-.03,.17-.04,.23-.04,.12-.12,.32-.18,.59-.17,.27,.01,.57,.05,.89,.14,.32,.08,.64,.18,.95,.3,.31,.12,.57,.21,.77,.27,.4,0,.79,0,1.16-.03,.37-.02,.69-.1,.98-.24,.46-.2,.91-.45,1.35-.74,.44-.29,.83-.63,1.16-1.01,.33-.38,.59-.8,.77-1.26,.18-.46,.23-.96,.15-1.5,0-.7-.15-1.32-.45-1.87-.3-.54-.69-1.04-1.17-1.49-.48-.45-1-.88-1.56-1.28-.56-.4-1.11-.82-1.66-1.25-.54-.43-1.02-.9-1.44-1.41-.42-.51-.72-1.1-.9-1.76,0-.06-.04-.09-.12-.11-.08,0-.16,0-.24,.03-.08,.03-.14,.08-.18,.14-.04,.06-.03,.12,.03,.18Zm0,0c.2,.94,.59,1.72,1.16,2.34,.57,.62,1.2,1.2,1.88,1.73,.68,.53,1.35,1.07,2.02,1.62,.66,.55,1.19,1.23,1.59,2.03,.34,.66,.44,1.34,.31,2.03-.13,.69-.41,1.3-.84,1.83-.43,.53-.98,.94-1.64,1.23-.66,.29-1.36,.37-2.1,.23-.34-.06-.69-.15-1.04-.26-.35-.11-.7-.19-1.05-.24-.35-.05-.69-.05-1.01,.01-.32,.06-.61,.22-.87,.48-.06,.06-.08,.09-.06,.1,.02,.01,.07,.01,.13,0,.07,0,.15-.03,.24-.06,.09-.03,.17-.04,.23-.04,.12-.12,.32-.18,.59-.17,.27,.01,.57,.05,.89,.14,.32,.08,.64,.18,.95,.3,.31,.12,.57,.21,.77,.27,.4,0,.79,0,1.16-.03,.37-.02,.69-.1,.98-.24,.46-.2,.91-.45,1.35-.74,.44-.29,.83-.63,1.16-1.01,.33-.38,.59-.8,.77-1.26,.18-.46,.23-.96,.15-1.5,0-.7-.15-1.32-.45-1.87-.3-.54-.69-1.04-1.17-1.49-.48-.45-1-.88-1.56-1.28-.56-.4-1.11-.82-1.66-1.25-.54-.43-1.02-.9-1.44-1.41-.42-.51-.72-1.1-.9-1.76,0-.06-.04-.09-.12-.11-.08,0-.16,0-.24,.03-.08,.03-.14,.08-.18,.14-.04,.06-.03,.12,.03,.18Zm6.14-2.92c.06,0,.14,.02,.25,.05,.11,.03,.21,.07,.29,.12,.08,.05,.13,.11,.15,.18,.02,.07-.04,.14-.18,.2-.4,.14-.8,.26-1.19,.36-.39,.1-.79,.15-1.19,.15-.34-.06-.69-.14-1.04-.24-.35-.1-.7-.16-1.05-.2-.35-.03-.69,0-1.02,.09-.33,.09-.63,.31-.89,.65-.28,.26-.51,.59-.69,.99-.18,.4-.31,.83-.38,1.28-.07,.45-.06,.9,.02,1.34,.08,.44,.25,.82,.51,1.14,.4,.56,.86,1.01,1.37,1.34,.51,.33,1.03,.7,1.55,1.1,.14,.12,.12,.24-.06,.35-.18,.11-.33,.17-.45,.17-.34-.26-.67-.5-.99-.72-.32-.22-.63-.44-.93-.68-.3-.23-.58-.49-.84-.77-.26-.28-.49-.62-.69-1.02-.14-.26-.23-.57-.26-.93-.03-.36-.03-.72,.02-1.08,.04-.36,.12-.72,.26-1.07,.13-.35,.29-.66,.5-.92,.28-.52,.63-.96,1.04-1.32,.41-.36,.96-.54,1.64-.54,.32,0,.67,.05,1.04,.15,.37,.1,.74,.18,1.1,.24,.36,.06,.72,.07,1.08,.05,.36-.03,.71-.18,1.05-.44Zm0,0c.06,0,.14,.02,.25,.05,.11,.03,.21,.07,.29,.12,.08,.05,.13,.11,.15,.18,.02,.07-.04,.14-.18,.2-.4,.14-.8,.26-1.19,.36-.39,.1-.79,.15-1.19,.15-.34-.06-.69-.14-1.04-.24-.35-.1-.7-.16-1.05-.2-.35-.03-.69,0-1.02,.09-.33,.09-.63,.31-.89,.65-.28,.26-.51,.59-.69,.99-.18,.4-.31,.83-.38,1.28-.07,.45-.06,.9,.02,1.34,.08,.44,.25,.82,.51,1.14,.4,.56,.86,1.01,1.37,1.34,.51,.33,1.03,.7,1.55,1.1,.14,.12,.12,.24-.06,.35-.18,.11-.33,.17-.45,.17-.34-.26-.67-.5-.99-.72-.32-.22-.63-.44-.93-.68-.3-.23-.58-.49-.84-.77-.26-.28-.49-.62-.69-1.02-.14-.26-.23-.57-.26-.93-.03-.36-.03-.72,.02-1.08,.04-.36,.12-.72,.26-1.07,.13-.35,.29-.66,.5-.92,.28-.52,.63-.96,1.04-1.32,.41-.36,.96-.54,1.64-.54,.32,0,.67,.05,1.04,.15,.37,.1,.74,.18,1.1,.24,.36,.06,.72,.07,1.08,.05,.36-.03,.71-.18,1.05-.44Zm-7.46,6.11c.92,.82,1.84,1.63,2.74,2.42,.9,.79,1.76,1.59,2.59,2.39,.2,.2,.47,.51,.81,.93,.34,.42,.62,.87,.83,1.34,.21,.47,.3,.92,.27,1.34-.03,.42-.31,.73-.86,.93-.14,0-.23,.03-.26,.08-.03,.05-.03,.11,0,.18,.03,.07,.09,.13,.2,.18,.1,.05,.21,.08,.33,.08,.46-.2,.79-.45,.98-.74,.19-.29,.29-.61,.29-.95s-.07-.71-.21-1.11c-.14-.4-.31-.8-.51-1.2-.28-.4-.61-.78-.98-1.14-.37-.36-.76-.68-1.16-.96-.68-.66-1.39-1.32-2.14-1.99-.74-.66-1.45-1.33-2.14-2.02-.06-.06-.15-.09-.27-.11-.12,0-.23,0-.33,.03-.1,.03-.17,.07-.21,.14-.04,.06-.03,.12,.03,.18Zm0,0c.92,.82,1.84,1.63,2.74,2.42,.9,.79,1.76,1.59,2.59,2.39,.2,.2,.47,.51,.81,.93,.34,.42,.62,.87,.83,1.34,.21,.47,.3,.92,.27,1.34-.03,.42-.31,.73-.86,.93-.14,0-.23,.03-.26,.08-.03,.05-.03,.11,0,.18,.03,.07,.09,.13,.2,.18,.1,.05,.21,.08,.33,.08,.46-.2,.79-.45,.98-.74,.19-.29,.29-.61,.29-.95s-.07-.71-.21-1.11c-.14-.4-.31-.8-.51-1.2-.28-.4-.61-.78-.98-1.14-.37-.36-.76-.68-1.16-.96-.68-.66-1.39-1.32-2.14-1.99-.74-.66-1.45-1.33-2.14-2.02-.06-.06-.15-.09-.27-.11-.12,0-.23,0-.33,.03-.1,.03-.17,.07-.21,.14-.04,.06-.03,.12,.03,.18Zm0-2.11c0,.52,.13,1,.39,1.44,.26,.44,.58,.85,.96,1.22,.38,.37,.78,.71,1.2,1.02,.42,.31,.8,.6,1.14,.86,.34,.26,.75,.56,1.23,.89,.48,.33,.92,.69,1.32,1.07,.4,.38,.71,.79,.92,1.22,.21,.43,.21,.88,.02,1.34,0,.14,.09,.21,.28,.21s.36-.07,.5-.21c.2-.46,.23-.91,.08-1.34-.15-.43-.39-.83-.72-1.19-.33-.36-.71-.69-1.14-.99-.43-.3-.81-.55-1.13-.75-.4-.26-.85-.56-1.34-.9-.49-.34-.96-.72-1.4-1.13-.44-.41-.81-.87-1.1-1.37-.29-.5-.44-1.05-.44-1.65-.16,0-.29,0-.39,.03-.26,.04-.39,.12-.39,.24Zm0,0c0,.52,.13,1,.39,1.44,.26,.44,.58,.85,.96,1.22,.38,.37,.78,.71,1.2,1.02,.42,.31,.8,.6,1.14,.86,.34,.26,.75,.56,1.23,.89,.48,.33,.92,.69,1.32,1.07,.4,.38,.71,.79,.92,1.22,.21,.43,.21,.88,.02,1.34,0,.14,.09,.21,.28,.21s.36-.07,.5-.21c.2-.46,.23-.91,.08-1.34-.15-.43-.39-.83-.72-1.19-.33-.36-.71-.69-1.14-.99-.43-.3-.81-.55-1.13-.75-.4-.26-.85-.56-1.34-.9-.49-.34-.96-.72-1.4-1.13-.44-.41-.81-.87-1.1-1.37-.29-.5-.44-1.05-.44-1.65-.16,0-.29,0-.39,.03-.26,.04-.39,.12-.39,.24Zm7.97,8.54c0,.4-.08,.76-.23,1.08-.15,.32-.35,.61-.6,.86-.25,.25-.54,.46-.86,.63-.32,.17-.64,.29-.96,.35-.46,.12-.92,.17-1.38,.15-.46-.02-.89-.12-1.29-.29-.4-.17-.76-.4-1.08-.69-.32-.29-.58-.64-.78-1.04-.08,0-.16,.01-.24,.04-.08,.03-.16,.07-.24,.11l-.3,.12c.26,.46,.59,.84,.98,1.14,.39,.3,.82,.53,1.28,.68,.46,.15,.95,.22,1.47,.22s1.05-.06,1.59-.18c.4-.06,.81-.19,1.22-.39,.41-.2,.78-.45,1.11-.75,.33-.3,.6-.65,.81-1.04,.21-.39,.32-.82,.32-1.28,0-.08-.04-.12-.12-.12s-.18,.01-.29,.04c-.11,.03-.21,.08-.28,.15-.08,.07-.12,.14-.12,.2Zm0,0c0,.4-.08,.76-.23,1.08-.15,.32-.35,.61-.6,.86-.25,.25-.54,.46-.86,.63-.32,.17-.64,.29-.96,.35-.46,.12-.92,.17-1.38,.15-.46-.02-.89-.12-1.29-.29-.4-.17-.76-.4-1.08-.69-.32-.29-.58-.64-.78-1.04-.08,0-.16,.01-.24,.04-.08,.03-.16,.07-.24,.11l-.3,.12c.26,.46,.59,.84,.98,1.14,.39,.3,.82,.53,1.28,.68,.46,.15,.95,.22,1.47,.22s1.05-.06,1.59-.18c.4-.06,.81-.19,1.22-.39,.41-.2,.78-.45,1.11-.75,.33-.3,.6-.65,.81-1.04,.21-.39,.32-.82,.32-1.28,0-.08-.04-.12-.12-.12s-.18,.01-.29,.04c-.11,.03-.21,.08-.28,.15-.08,.07-.12,.14-.12,.2Zm-7.97,2.65h.51c.1,0,.18,.05,.24,.15,.02,.04,.03,.08,.03,.12l.27-.27h-.27v-.78h-.27c-.12,0-.24,0-.34,.03-.11,.02-.17,.09-.17,.21v.81c.14,.14,.32,.21,.53,.21s.39-.07,.53-.21c.14,0,.27-.01,.37-.03,.11-.02,.17-.1,.17-.24l-.27-.27h-1.05l-.27,.27Zm0,0h.51c.1,0,.18,.05,.24,.15,.02,.04,.03,.08,.03,.12l.27-.27h-.27v-.78h-.27c-.12,0-.24,0-.34,.03-.11,.02-.17,.09-.17,.21v.81c.14,.14,.32,.21,.53,.21s.39-.07,.53-.21c.14,0,.27-.01,.37-.03,.11-.02,.17-.1,.17-.24l-.27-.27h-1.05l-.27,.27Zm1.84-14.65c.08-.06,.18-.11,.3-.15,.12-.04,.23-.06,.33-.06s.17,.02,.21,.06c.04,.04,.03,.09-.03,.15-.14,.4-.32,.74-.54,1.02-.22,.28-.39,.56-.51,.84-.28,.4-.38,.79-.29,1.16,.09,.37,.27,.7,.53,.98,.26,.34,.53,.68,.81,1.02,.28,.34,.58,.66,.89,.96,.31,.3,.66,.56,1.04,.78,.38,.22,.8,.36,1.26,.42-.12,0-.2,.05-.24,.14-.04,.09-.13,.14-.27,.14-.52-.14-1-.39-1.43-.75-.43-.36-.85-.74-1.25-1.14-.06-.06-.06-.12-.01-.18,.05-.06,.12-.11,.22-.14,.1-.03,.21-.04,.33-.03,.12,.01,.21,.04,.27,.11,.26,.4,.59,.75,.99,1.04,.4,.29,.86,.57,1.38,.83,.14,0,.2,.01,.2,.05-.01,.03-.06,.06-.14,.09-.08,.03-.18,.06-.3,.09-.12,.03-.21,.05-.27,.05-.46-.06-.91-.22-1.34-.47-.43-.25-.84-.55-1.23-.9-.39-.35-.75-.73-1.08-1.14-.33-.41-.63-.82-.89-1.22-.26-.34-.37-.66-.35-.96,.03-.3,.12-.6,.29-.9,.16-.3,.36-.6,.59-.9,.23-.3,.41-.62,.53-.96Zm0,0c.08-.06,.18-.11,.3-.15,.12-.04,.23-.06,.33-.06s.17,.02,.21,.06c.04,.04,.03,.09-.03,.15-.14,.4-.32,.74-.54,1.02-.22,.28-.39,.56-.51,.84-.28,.4-.38,.79-.29,1.16,.09,.37,.27,.7,.53,.98,.26,.34,.53,.68,.81,1.02,.28,.34,.58,.66,.89,.96,.31,.3,.66,.56,1.04,.78,.38,.22,.8,.36,1.26,.42-.12,0-.2,.05-.24,.14-.04,.09-.13,.14-.27,.14-.52-.14-1-.39-1.43-.75-.43-.36-.85-.74-1.25-1.14-.06-.06-.06-.12-.01-.18,.05-.06,.12-.11,.22-.14,.1-.03,.21-.04,.33-.03,.12,.01,.21,.04,.27,.11,.26,.4,.59,.75,.99,1.04,.4,.29,.86,.57,1.38,.83,.14,0,.2,.01,.2,.05-.01,.03-.06,.06-.14,.09-.08,.03-.18,.06-.3,.09-.12,.03-.21,.05-.27,.05-.46-.06-.91-.22-1.34-.47-.43-.25-.84-.55-1.23-.9-.39-.35-.75-.73-1.08-1.14-.33-.41-.63-.82-.89-1.22-.26-.34-.37-.66-.35-.96,.03-.3,.12-.6,.29-.9,.16-.3,.36-.6,.59-.9,.23-.3,.41-.62,.53-.96Zm6.14,2.68c0,.06-.04,.12-.12,.18-.08,.06-.17,.11-.27,.14-.1,.03-.19,.04-.27,.03-.08,0-.12-.05-.12-.11-.14-.4-.38-.82-.71-1.26-.33-.44-.72-.81-1.16-1.11-.44-.3-.9-.48-1.37-.53-.47-.05-.91,.11-1.31,.5-.26,.28-.5,.6-.72,.95-.22,.35-.38,.72-.48,1.1-.1,.38-.13,.77-.08,1.16,.05,.39,.21,.76,.47,1.1,.34,.52,.75,.97,1.23,1.35,.48,.38,1,.72,1.55,1.02,.55,.3,1.11,.58,1.68,.83,.57,.25,1.13,.51,1.67,.77,.14,0,.2,.02,.18,.05-.02,.03-.07,.06-.15,.09-.08,.03-.18,.06-.29,.09-.11,.03-.2,.04-.25,.04-.4-.18-.88-.38-1.43-.6-.55-.22-1.11-.47-1.67-.75-.56-.28-1.11-.59-1.64-.93-.53-.34-.98-.72-1.34-1.13-.36-.41-.61-.86-.74-1.35-.13-.49-.09-1.03,.13-1.61,.26-1,.72-1.74,1.38-2.21,.66-.47,1.37-.7,2.12-.69,.75,.01,1.47,.27,2.15,.77,.68,.5,1.19,1.21,1.53,2.14Zm0,0c0,.06-.04,.12-.12,.18-.08,.06-.17,.11-.27,.14-.1,.03-.19,.04-.27,.03-.08,0-.12-.05-.12-.11-.14-.4-.38-.82-.71-1.26-.33-.44-.72-.81-1.16-1.11-.44-.3-.9-.48-1.37-.53-.47-.05-.91,.11-1.31,.5-.26,.28-.5,.6-.72,.95-.22,.35-.38,.72-.48,1.1-.1,.38-.13,.77-.08,1.16,.05,.39,.21,.76,.47,1.1,.34,.52,.75,.97,1.23,1.35,.48,.38,1,.72,1.55,1.02,.55,.3,1.11,.58,1.68,.83,.57,.25,1.13,.51,1.67,.77,.14,0,.2,.02,.18,.05-.02,.03-.07,.06-.15,.09-.08,.03-.18,.06-.29,.09-.11,.03-.2,.04-.25,.04-.4-.18-.88-.38-1.43-.6-.55-.22-1.11-.47-1.67-.75-.56-.28-1.11-.59-1.64-.93-.53-.34-.98-.72-1.34-1.13-.36-.41-.61-.86-.74-1.35-.13-.49-.09-1.03,.13-1.61,.26-1,.72-1.74,1.38-2.21,.66-.47,1.37-.7,2.12-.69,.75,.01,1.47,.27,2.15,.77,.68,.5,1.19,1.21,1.53,2.14Zm-2.65,5.56c.1-.08,.2-.15,.3-.21,.08-.04,.16-.07,.26-.09,.09-.02,.17,0,.25,.06,.4,.26,.78,.62,1.14,1.08,.36,.46,.68,.89,.96,1.29,.14,.14,.27,.29,.39,.45,.12,.16,.2,.32,.23,.47,.03,.15,0,.29-.09,.42-.09,.13-.27,.23-.53,.29-.26,.06-.5,.06-.71,0-.21-.06-.4-.15-.56-.27-.16-.12-.31-.26-.45-.41-.14-.15-.27-.28-.39-.4-.4-.52-.79-1.01-1.17-1.46-.38-.45-.71-.94-.99-1.46,.14-.04,.27-.07,.39-.09,.1-.02,.2-.03,.29-.02,.09,.01,.14,.05,.14,.11,.28,.26,.54,.57,.8,.92,.25,.35,.52,.67,.8,.95,.14,.26,.29,.51,.44,.75,.15,.24,.37,.43,.65,.57,.12,.12,.24,.28,.37,.5,.13,.21,.27,.32,.41,.32h-.27s-.06-.01-.06-.03c0-.02,0-.05,.03-.09,.02-.04,.03-.09,.03-.15v-.54c-.14-.28-.27-.5-.39-.65-.12-.15-.25-.3-.39-.44-.28-.4-.56-.78-.84-1.13-.28-.35-.62-.6-1.02-.74Zm0,0c.1-.08,.2-.15,.3-.21,.08-.04,.16-.07,.26-.09,.09-.02,.17,0,.25,.06,.4,.26,.78,.62,1.14,1.08,.36,.46,.68,.89,.96,1.29,.14,.14,.27,.29,.39,.45,.12,.16,.2,.32,.23,.47,.03,.15,0,.29-.09,.42-.09,.13-.27,.23-.53,.29-.26,.06-.5,.06-.71,0-.21-.06-.4-.15-.56-.27-.16-.12-.31-.26-.45-.41-.14-.15-.27-.28-.39-.4-.4-.52-.79-1.01-1.17-1.46-.38-.45-.71-.94-.99-1.46,.14-.04,.27-.07,.39-.09,.1-.02,.2-.03,.29-.02,.09,.01,.14,.05,.14,.11,.28,.26,.54,.57,.8,.92,.25,.35,.52,.67,.8,.95,.14,.26,.29,.51,.44,.75,.15,.24,.37,.43,.65,.57,.12,.12,.24,.28,.37,.5,.13,.21,.27,.32,.41,.32h-.27s-.06-.01-.06-.03c0-.02,0-.05,.03-.09,.02-.04,.03-.09,.03-.15v-.54c-.14-.28-.27-.5-.39-.65-.12-.15-.25-.3-.39-.44-.28-.4-.56-.78-.84-1.13-.28-.35-.62-.6-1.02-.74Zm.03-.24c0-.06,.04-.12,.12-.2,.08-.07,.16-.12,.24-.15,.08-.03,.14-.04,.19-.03,.05,.01,.04,.05-.04,.11v.27c0,.12,0,.24,.03,.36,.02,.12,.05,.22,.09,.3,.04,.08,.1,.12,.18,.12,.12,.14,.24,.19,.37,.14,.13-.05,.27,0,.41,.13h.54c.12,.14,.15,.32,.09,.54-.06,.22-.09,.39-.09,.51-.06,0-.15,.01-.27,.04-.12,.03-.23,.05-.33,.06-.1,.01-.18,.01-.23,0-.05,0-.04-.04,.02-.1,.04-.14,.07-.27,.09-.39,.02-.1,.02-.19,.01-.27,0-.08-.04-.12-.1-.12h-.51c-.28,0-.49-.05-.63-.14-.14-.09-.24-.2-.29-.33-.05-.13-.06-.27-.03-.44,.03-.16,.08-.3,.13-.42Zm0,0c0-.06,.04-.12,.12-.2,.08-.07,.16-.12,.24-.15,.08-.03,.14-.04,.19-.03,.05,.01,.04,.05-.04,.11v.27c0,.12,0,.24,.03,.36,.02,.12,.05,.22,.09,.3,.04,.08,.1,.12,.18,.12,.12,.14,.24,.19,.37,.14,.13-.05,.27,0,.41,.13h.54c.12,.14,.15,.32,.09,.54-.06,.22-.09,.39-.09,.51-.06,0-.15,.01-.27,.04-.12,.03-.23,.05-.33,.06-.1,.01-.18,.01-.23,0-.05,0-.04-.04,.02-.1,.04-.14,.07-.27,.09-.39,.02-.1,.02-.19,.01-.27,0-.08-.04-.12-.1-.12h-.51c-.28,0-.49-.05-.63-.14-.14-.09-.24-.2-.29-.33-.05-.13-.06-.27-.03-.44,.03-.16,.08-.3,.13-.42Zm1.84-7.49c0,.16-.01,.29-.03,.39-.02,.1-.1,.15-.24,.15h-.54c0-.12-.01-.2-.03-.24-.02-.04-.09-.14-.21-.3,.12,0,.25,0,.38-.03,.13-.02,.27-.09,.41-.21,.14,.12,.23,.24,.27,.36,.04,.12,.13,.18,.27,.18,.1,.1,.13,.22,.09,.36-.02,.06-.05,.11-.09,.15h-.54c-.14-.14-.28-.27-.41-.39-.13-.12-.26-.26-.38-.42,0-.04,0-.08,.03-.12,.04-.08,.11-.12,.21-.12h.54c0,.1,.04,.17,.12,.21,.04,.02,.09,.03,.15,.03Zm0,0c0,.16-.01,.29-.03,.39-.02,.1-.1,.15-.24,.15h-.54c0-.12-.01-.2-.03-.24-.02-.04-.09-.14-.21-.3,.12,0,.25,0,.38-.03,.13-.02,.27-.09,.41-.21,.14,.12,.23,.24,.27,.36,.04,.12,.13,.18,.27,.18,.1,.1,.13,.22,.09,.36-.02,.06-.05,.11-.09,.15h-.54c-.14-.14-.28-.27-.41-.39-.13-.12-.26-.26-.38-.42,0-.04,0-.08,.03-.12,.04-.08,.11-.12,.21-.12h.54c0,.1,.04,.17,.12,.21,.04,.02,.09,.03,.15,.03Zm.03-.51c-.06-.06-.07-.12-.03-.2,.04-.07,.1-.12,.18-.15,.08-.03,.16-.04,.24-.03,.08,0,.12,.05,.12,.11,0,.66,.05,1.31,.16,1.96,.11,.64,.24,1.23,.38,1.77,0,.06-.04,.13-.12,.2-.08,.07-.17,.12-.27,.15-.1,.03-.19,.04-.27,.03-.08,0-.12-.05-.12-.11-.14-.68-.22-1.31-.24-1.88-.02-.57-.03-1.19-.03-1.85Zm0,0c-.06-.06-.07-.12-.03-.2,.04-.07,.1-.12,.18-.15,.08-.03,.16-.04,.24-.03,.08,0,.12,.05,.12,.11,0,.66,.05,1.31,.16,1.96,.11,.64,.24,1.23,.38,1.77,0,.06-.04,.13-.12,.2-.08,.07-.17,.12-.27,.15-.1,.03-.19,.04-.27,.03-.08,0-.12-.05-.12-.11-.14-.68-.22-1.31-.24-1.88-.02-.57-.03-1.19-.03-1.85Z"/>
      </g>
      <g>
        <path class="cls-2" d="M92.55,22.81c.06,0,.08,.03,.06,.08-.02,.05-.06,.11-.12,.17-.06,.06-.13,.11-.21,.16-.08,.05-.15,.08-.21,.08-.6,0-1.14,.13-1.62,.41-.48,.27-.91,.63-1.29,1.08-.38,.45-.71,.96-.98,1.53-.27,.57-.5,1.16-.68,1.76-.18,.6-.31,1.2-.39,1.79-.08,.59-.12,1.13-.12,1.61,.06,.98,.38,1.97,.95,2.96,.57,.99,1.29,1.82,2.14,2.47,.85,.65,1.78,1.03,2.79,1.14,1,.11,1.96-.23,2.87-1.01,.12-.04,.23-.07,.33-.09,.1-.02,.19-.02,.26,0,.07,.02,.11,.05,.11,.09-.64,.52-1.34,.87-2.08,1.04-.74,.17-1.48,.2-2.22,.08-.73-.12-1.45-.37-2.14-.74-.69-.37-1.31-.83-1.84-1.38-.53-.55-.97-1.17-1.31-1.86-.34-.69-.53-1.42-.57-2.18,0-.96,.12-1.98,.35-3.05,.23-1.07,.59-2.06,1.08-2.98,.49-.91,1.14-1.66,1.94-2.26,.8-.59,1.78-.89,2.92-.89Zm-4.09,12.57c0-1.1-.05-2.15-.15-3.13-.1-.98-.21-1.95-.33-2.92l-.75,.24c-.12,.12-.22,.29-.3,.5-.08,.21-.11,.42-.09,.63,.02,.21,.1,.39,.23,.54,.13,.15,.35,.23,.65,.23,.26-.12,.42-.24,.48-.36,.06-.12,.15-.24,.27-.36,.24-.46,.42-1.01,.54-1.65,.12-.64,.18-1.21,.18-1.71-.14,0-.26,.01-.36,.03-.1,.02-.19,.05-.26,.07-.07,.03-.11,.08-.11,.14-.12,.72-.2,1.6-.23,2.63-.03,1.03,.06,2.05,.26,3.05,.2,1,.54,1.9,1.01,2.68,.47,.78,1.16,1.29,2.07,1.53,.14,0,.23,0,.27-.03,.04-.02,.12-.09,.24-.21-.6-.12-1.13-.34-1.58-.65-.45-.31-.83-.68-1.13-1.11-.3-.43-.53-.91-.68-1.44-.15-.53-.23-1.07-.23-1.61,0-.06-.04-.09-.12-.1s-.17,0-.27,.02c-.1,.02-.22,.05-.36,.09,0,.6,.16,1.11,.47,1.53,.31,.42,.65,.88,1.01,1.38,.12-.12,.24-.19,.35-.21,.11-.02,.23-.03,.35-.03-.46-.38-.82-.84-1.08-1.38-.26-.54-.45-1.05-.57-1.53-.26-.62-.48-1.28-.66-1.97-.18-.69-.21-1.4-.09-2.12,.06,0,.07,0,.03,0s-.1,.01-.18,.03c-.08,.02-.16,.05-.22,.08-.07,.03-.11,.08-.11,.14-.24,.6-.29,1.21-.15,1.82,.14,.61,.27,1.29,.39,2.03,.24,.48,.51,1.03,.8,1.65,.29,.62,.68,1.12,1.16,1.5l.69-.24c-.34-.5-.67-.95-.97-1.35-.3-.4-.45-.84-.45-1.32h-.75c0,1.34,.34,2.46,1.03,3.35,.68,.89,1.63,1.46,2.83,1.7,.14-.04,.25-.08,.33-.12,.2-.08,.26-.12,.18-.12-.9-.24-1.59-.75-2.05-1.54-.46-.78-.77-1.67-.93-2.68-.16-1-.22-2.02-.17-3.05,.05-1.03,.13-1.91,.26-2.63-.12,0-.24,.04-.36,.12-.12,.08-.24,.12-.36,.12,0,.5-.06,1.07-.18,1.71-.12,.64-.31,1.19-.57,1.65-.12-.12-.19-.2-.21-.24-.02-.04-.03-.12-.03-.24,0-.22,.02-.4,.06-.54,.04-.14,.19-.27,.45-.39h-.76c.12,.96,.23,1.93,.33,2.89,.1,.96,.15,1.94,.15,2.92,0,.06,.03,.09,.1,.11,.07,0,.16,0,.26-.02,.1-.02,.23-.05,.39-.09Zm-1.24-7.25c.14-.04,.26-.07,.36-.09,.1-.02,.19-.03,.27-.02,.08,.01,.12,.05,.12,.11,0,.36-.01,.68-.03,.96-.02,.28-.1,.6-.24,.96,0,.06-.04,.1-.11,.12-.07,.02-.15,.04-.23,.06-.08,.02-.14,.03-.18,.03-.04,0-.03,0,.03,0v-2.14Zm5.81-4.6c.12,0,.1,.04-.06,.11-.16,.07-.3,.1-.42,.1-.36,0-.67,.04-.93,.14-.26,.09-.5,.21-.71,.36-.21,.15-.42,.33-.62,.54-.2,.21-.42,.44-.66,.68-.1,.1-.24,.17-.42,.21-.08,.02-.17,.03-.27,.03,.34-.62,.76-1.11,1.27-1.47,.5-.36,1.13-.59,1.87-.69,0-.12,.07-.18,.21-.18s.15,.06,.03,.18c-.42,.36-.84,.71-1.25,1.05-.41,.34-.8,.7-1.16,1.08-.36,.38-.69,.79-.98,1.23-.29,.44-.53,.93-.71,1.47,0,.06-.04,.11-.12,.14-.08,.03-.17,.06-.27,.08-.1,.02-.22,.03-.36,.03,.12-1.34,.56-2.45,1.32-3.32,.76-.87,1.69-1.54,2.77-2,0-.06,.04-.1,.12-.13,.08-.03,.16-.05,.23-.05s.13,.02,.18,.05c.05,.03,.04,.07-.01,.13-.18,.18-.34,.39-.48,.62-.14,.23-.28,.47-.42,.71-.14,.24-.29,.48-.45,.71-.16,.23-.36,.44-.6,.62-.46,.36-.86,.78-1.21,1.26-.34,.48-.57,1.03-.69,1.65-.26,1.08-.31,2.21-.14,3.37,.17,1.16,.38,2.3,.62,3.4,0,.06-.04,.11-.11,.14-.07,.03-.16,.05-.26,.07-.1,.02-.22,.03-.36,.03-.26-1.1-.47-2.27-.63-3.52-.16-1.24-.12-2.41,.12-3.49,.26-.5,.52-.98,.78-1.44,.26-.46,.57-.87,.93-1.23,.34-.24,.63-.49,.87-.75,.24-.26,.42-.58,.54-.96,.12-.24,.25-.47,.39-.68,.14-.21,.33-.38,.57-.5h.51c-1.11,.46-2,1.12-2.67,1.97-.67,.85-1.07,1.89-1.19,3.11-.12,0-.25,0-.38,.03-.13,.02-.26,.09-.38,.21,.38-1.1,.95-2.05,1.7-2.83,.75-.78,1.55-1.53,2.4-2.26,.14,0,.22,.01,.24,.03,.02,.02,.03,.08,.03,.18-.5,0-.93,.16-1.3,.48-.36,.32-.67,.73-.91,1.23h-.69c.3-.3,.59-.57,.86-.81,.27-.24,.57-.45,.89-.62,.32-.17,.67-.29,1.05-.38,.38-.08,.81-.12,1.29-.12Zm.23,.21c.12-.06,.2-.08,.24-.06,.04,.02,.05,.05,.03,.11-.02,.05-.06,.1-.11,.13-.05,.04-.1,.06-.16,.06-.88,.12-1.61,.47-2.2,1.05-.58,.58-1.02,1.29-1.32,2.12-.3,.83-.46,1.73-.48,2.71-.02,.97,.08,1.92,.3,2.83,.22,.91,.56,1.74,1.02,2.48,.46,.74,1.03,1.29,1.71,1.66,.12,0,.1,.04-.06,.11-.16,.07-.3,.1-.42,.1-.66-.3-1.21-.73-1.64-1.29-.43-.56-.77-1.19-1.01-1.88-.24-.69-.4-1.41-.47-2.16-.07-.75-.07-1.46-.02-2.12,.06-.72,.2-1.42,.41-2.1,.21-.68,.5-1.29,.87-1.82,.37-.53,.83-.97,1.38-1.31,.55-.34,1.19-.54,1.91-.6Zm-1.42-.45c-.14-.12-.13-.23,.05-.33,.17-.1,.32-.15,.44-.15,.72,.18,1.42,.4,2.1,.65,.68,.25,1.31,.56,1.88,.93,.57,.37,1.08,.82,1.52,1.35,.44,.53,.78,1.16,1.02,1.88,.24,.78,.41,1.58,.51,2.41,.1,.82,.1,1.63,0,2.42-.1,.79-.33,1.54-.69,2.26-.36,.71-.87,1.34-1.53,1.88h-.24c-.1,0-.2,0-.29-.03-.09-.02-.16-.05-.21-.08-.05-.03-.05-.08,.01-.14,.66-.48,1.18-1.06,1.56-1.75,.38-.68,.63-1.4,.75-2.15,.12-.75,.12-1.52,0-2.32-.12-.79-.33-1.55-.63-2.27-.48-1.44-1.28-2.51-2.39-3.2-1.11-.69-2.4-1.15-3.86-1.37Zm.22,14.47c-.12,0-.2-.02-.24-.08-.04-.05-.06-.11-.04-.16,0-.06,.04-.12,.1-.16,.06-.05,.12-.08,.18-.08,.84-.12,1.59-.45,2.26-.98,.66-.53,1.22-1.18,1.67-1.94,.45-.76,.78-1.59,.99-2.5,.21-.9,.3-1.79,.26-2.66-.04-.87-.22-1.69-.56-2.44-.33-.75-.82-1.35-1.46-1.79-.12-.06-.17-.13-.17-.22,0-.09,.06-.17,.13-.23,.08-.06,.17-.1,.27-.12,.1-.02,.18,0,.24,.06,.72,.52,1.26,1.2,1.62,2.03,.36,.83,.56,1.72,.59,2.66,.03,.94-.08,1.9-.33,2.87-.25,.97-.63,1.86-1.14,2.66-.51,.8-1.14,1.48-1.88,2.04-.74,.56-1.57,.9-2.5,1.02Zm.24,.24c-.12,0-.18-.03-.17-.07,0-.05,.05-.11,.14-.17,.08-.06,.17-.11,.27-.17,.1-.05,.18-.07,.24-.07,.84,.06,1.57-.1,2.18-.47,.61-.37,1.11-.87,1.5-1.49,.39-.62,.68-1.32,.86-2.09,.18-.77,.27-1.52,.27-2.24,0-.06,.04-.11,.11-.14,.07-.03,.15-.06,.25-.08,.1-.02,.22-.03,.36-.03,0,.9-.13,1.79-.39,2.66-.26,.87-.65,1.64-1.16,2.3-.51,.66-1.14,1.18-1.89,1.56-.75,.38-1.61,.54-2.57,.48Zm2.19-.96c.1-.08,.22-.14,.36-.18,.06-.02,.11-.03,.15-.03h.24c-.38,.34-.79,.6-1.23,.78-.44,.18-.84,.39-1.2,.63-.12,0-.25,0-.39-.03-.14-.02-.09-.09,.15-.21,.36-.12,.71-.28,1.05-.48,.34-.2,.63-.36,.87-.48Zm3.35-6.53c0-.06,.04-.11,.13-.14,.08-.03,.17-.04,.27-.04s.18,.02,.27,.04c.08,.03,.12,.07,.12,.14,0,.6-.1,1.19-.3,1.77-.2,.58-.45,1.14-.75,1.68-.3,.54-.64,1.07-1.01,1.58-.37,.51-.74,1.01-1.1,1.49-.06,.06-.15,.11-.26,.14-.11,.03-.21,.04-.3,.04s-.16-.01-.2-.04c-.04-.03-.03-.08,.03-.14,.36-.48,.72-.98,1.1-1.49,.37-.51,.7-1.04,.99-1.58,.29-.54,.53-1.1,.72-1.68,.19-.58,.28-1.17,.28-1.77Zm-2.38,5.83c-.12,0-.19-.03-.2-.08-.01-.05,0-.11,.04-.17,.04-.06,.1-.12,.18-.17,.08-.05,.15-.08,.21-.08,.66,0,1.19-.26,1.58-.78,.39-.52,.66-1.13,.81-1.83,.15-.7,.18-1.4,.09-2.09-.09-.69-.29-1.22-.59-1.58-.12-.12-.1-.22,.06-.3,.16-.08,.3-.06,.42,.06,.48,.54,.77,1.21,.86,2,.09,.79,0,1.56-.26,2.3-.26,.74-.67,1.38-1.22,1.91-.55,.53-1.22,.8-2,.8Zm.72-11.13c-.06-.06-.07-.12-.03-.18,.04-.06,.1-.11,.17-.14,.07-.03,.14-.04,.21-.03,.07,0,.11,.04,.11,.1,.48,.6,.91,1.33,1.28,2.2,.37,.86,.62,1.75,.75,2.68,.13,.92,.12,1.83-.03,2.72-.15,.89-.5,1.67-1.04,2.33-.06,.06-.14,.11-.25,.14-.11,.03-.21,.04-.3,.04s-.16-.01-.2-.04c-.04-.03-.03-.08,.03-.14,.54-.66,.89-1.43,1.04-2.3,.15-.87,.16-1.75,.04-2.65-.12-.89-.34-1.75-.66-2.59-.32-.83-.69-1.55-1.11-2.15Z"/>
        <path class="cls-2" d="M105.27,22.75c.06,0,.15,.02,.27,.05,.12,.03,.22,.07,.3,.12,.08,.05,.13,.11,.14,.18,.01,.07-.06,.13-.2,.2-.52,.4-1.05,.67-1.59,.81-.54,.14-1.14,.21-1.81,.21v-.48c.66,.12,1.31,.16,1.94,.12,.63-.04,1.21,0,1.73,.12,.14,0,.23,.03,.27,.09,.04,.06,.04,.12,0,.18-.04,.06-.11,.12-.19,.18-.09,.06-.21,.09-.35,.09-.26,0-.48-.06-.65-.18-.17-.12-.39-.24-.65-.36-.06-.06-.07-.14-.03-.23,.04-.09,.11-.17,.21-.23,.1-.06,.21-.1,.33-.14,.12-.03,.21-.01,.27,.04,.14,.16,.27,.29,.39,.39,.12,.1,.25,.15,.39,.15,0,.12,0,.2-.03,.24-.02,.04-.1,.14-.24,.3-.26-.08-.54-.12-.83-.14-.29,0-.6-.01-.92-.01s-.65,0-.98-.02c-.33,0-.66-.05-.98-.14-.12,0-.14-.08-.06-.24,.08-.16,.2-.24,.36-.24,.52,0,1.03-.08,1.53-.24,.5-.16,.95-.44,1.35-.84Zm-2.89,16.36c-.14,0-.22-.03-.22-.09-.01-.06,0-.12,.06-.18,.05-.06,.12-.12,.2-.18,.08-.06,.15-.09,.21-.09,1.32,0,2.64,.04,3.96,.12,1.31,.08,2.63,.12,3.95,.12,.14,0,.22,.03,.23,.09,0,.06-.01,.12-.06,.18-.05,.06-.12,.12-.2,.18-.08,.06-.15,.09-.21,.09-1.32,0-2.64-.04-3.96-.12-1.31-.08-2.63-.12-3.96-.12Zm9.96-21.87c.06,0,.08,.03,.06,.07-.02,.05-.06,.1-.12,.15-.06,.05-.13,.08-.22,.09-.09,.01-.17-.01-.23-.07-.4-.14-.74-.31-1.02-.5-.28-.19-.56-.35-.84-.47-.28-.12-.59-.16-.92-.12-.33,.04-.73,.22-1.19,.54-.4,.4-.77,.82-1.11,1.26-.34,.44-.58,.99-.72,1.65-.12,.66-.19,1.33-.21,2.02-.02,.68-.02,1.37,.01,2.06,.03,.69,.07,1.38,.12,2.06,.05,.68,.08,1.35,.08,2.02-.14,.8-.22,1.59-.24,2.36-.02,.77-.03,1.49-.03,2.15,0,.78-.04,1.55-.11,2.32-.08,.76-.12,1.47-.12,2.14,0,.2,.01,.39,.03,.56,.02,.17,.02,.33,0,.48-.02,.15-.07,.29-.14,.42-.07,.13-.21,.25-.41,.37-.26,.16-.62,.25-1.08,.27-.46,.02-.89,.03-1.29,.03-.14,.06-.24,.08-.32,.06-.07-.02-.11-.06-.11-.12s.04-.12,.11-.17c.07-.05,.17-.07,.32-.07,.14-.12,.33-.19,.56-.21,.23-.02,.49-.03,.77-.03,.26,0,.45-.05,.57-.13,.12-.09,.2-.21,.23-.36,.03-.15,.04-.32,.02-.51-.02-.19-.03-.39-.03-.59,.14-.78,.22-1.57,.24-2.36,.02-.79,.03-1.59,.03-2.39,.14-1.7,.22-3.41,.24-5.11,.02-1.7,.03-3.42,.03-5.14,0-.6,.03-1.14,.1-1.61,.07-.47,.19-.91,.36-1.32,.17-.41,.42-.8,.73-1.17,.31-.37,.7-.76,1.16-1.16,.26-.28,.53-.53,.8-.75,.27-.22,.61-.33,1.01-.33,.32,.08,.61,.19,.86,.32,.25,.13,.49,.27,.71,.42,.22,.15,.44,.3,.65,.45,.21,.15,.45,.3,.71,.44Zm-7.85,21.05c-.06,.06-.15,.11-.27,.15-.12,.04-.23,.06-.33,.06s-.18-.02-.23-.06c-.05-.04-.04-.09,.04-.15,.52-.32,.89-.71,1.1-1.16,.21-.45,.37-.93,.47-1.44,.1-.51,.19-1.04,.27-1.58,.08-.54,.25-1.07,.51-1.59,0-.14,.13-.23,.39-.27,.12-.02,.26-.03,.42-.03-.28,.66-.45,1.28-.51,1.85-.06,.57-.16,1.19-.3,1.85-.28,1.08-.8,1.88-1.56,2.38Zm2.11-3.43c0,.06-.04,.11-.12,.15-.08,.04-.18,.06-.3,.06s-.21-.02-.3-.06c-.08-.04-.12-.09-.12-.15,.14-.28,.23-.49,.27-.63,.04-.14,.13-.28,.27-.42,.14,0,.28-.03,.41-.1,.13-.07,.25-.04,.38,.1,.06,.34,.11,.77,.16,1.28,.05,.51,.06,1.02,.03,1.54-.03,.51-.12,.97-.27,1.38-.15,.41-.39,.68-.71,.8-.2,.14-.38,.2-.53,.18-.16-.02-.28-.08-.38-.17-.09-.09-.15-.21-.17-.36-.02-.15,0-.29,.06-.44,0-.26,.06-.46,.18-.6,.12-.14,.27-.24,.45-.32,.18-.07,.38-.11,.59-.12,.21,0,.42-.01,.62-.01-.1,0-.17,.05-.21,.15-.02,.04-.03,.08-.03,.12-.28-.14-.5-.29-.68-.44-.17-.15-.39-.36-.65-.62,.12,0,.24-.05,.38-.14,.13-.09,.27-.14,.41-.14,.06,.14,.14,.34,.24,.6,.1,.26,.21,.52,.32,.78,.11,.26,.23,.49,.36,.69,.13,.2,.27,.3,.41,.3,.12,0,.2,.04,.24,.12,.04,.08,.05,.16,.02,.24-.03,.08-.1,.15-.2,.2-.1,.05-.21,.04-.33-.05-.26,0-.48-.1-.66-.3-.18-.2-.34-.44-.47-.72-.13-.28-.25-.57-.36-.86-.11-.29-.23-.54-.35-.74-.06-.06-.07-.13-.03-.2,.04-.07,.11-.12,.21-.15,.1-.03,.21-.04,.33-.03,.12,.01,.21,.04,.27,.11,.14,.14,.32,.29,.53,.44,.21,.15,.39,.36,.53,.62,.14,.14,.17,.23,.08,.27-.09,.04-.21,.12-.35,.24h-.78c-.14,.16-.22,.3-.24,.42-.02,.12-.03,.25-.03,.39,.14-.14,.22-.33,.24-.57,.02-.24,.03-.49,.03-.75v-2.89h.54c0,.12-.04,.25-.13,.38-.09,.13-.13,.26-.13,.4Zm-.84-10.26c0-.08,.04-.15,.12-.21,.08-.06,.18-.09,.3-.1,.11-.01,.21,0,.3,.04,.08,.04,.12,.13,.12,.27v4.99c0,.8-.06,1.58-.17,2.35-.11,.76-.24,1.47-.38,2.14h-.51c.12-.52,.28-1.05,.48-1.58,.2-.53,.3-1.07,.3-1.61,.14-.52,.22-1,.24-1.43,.02-.43,.03-.92,.03-1.46,.14,0,.3-.03,.5-.09,.19-.06,.29-.03,.29,.09,.14,.54,.17,1.07,.08,1.59-.09,.52-.21,1.05-.35,1.59-.26,.78-.45,1.52-.56,2.23-.11,.7-.09,1.44,.05,2.23,0,.14-.04,.25-.12,.32-.08,.07-.18,.11-.3,.12-.12,.01-.21,0-.3-.03-.08-.03-.12-.08-.12-.14-.12-.66-.17-1.32-.15-1.97,.02-.65,.16-1.31,.43-1.97,.14-.66,.32-1.28,.52-1.85,.2-.57,.31-1.19,.31-1.85,.04-.04,.09-.08,.15-.12,.04-.04,.09-.07,.15-.11,.06-.03,.13-.04,.22-.04-.14,.54-.19,1.07-.14,1.59,.05,.52,0,1.05-.14,1.59-.12,.52-.26,1.04-.41,1.56-.15,.52-.37,1.04-.65,1.56,0,.06-.04,.11-.12,.15-.08,.04-.17,.06-.27,.06s-.19-.02-.27-.06c-.08-.04-.12-.09-.12-.15,.13-.78,.24-1.56,.34-2.35,.1-.78,.14-1.57,.14-2.38v-4.99Zm1.35-7.37c0-.08,.04-.14,.12-.17,.08-.03,.17-.04,.27-.04s.19,.01,.27,.04c.08,.03,.12,.09,.12,.17,0,1.06-.26,2.12-.78,3.16-.26,.78-.41,1.51-.45,2.2-.04,.68-.06,1.35-.06,2.01,0,.06-.04,.12-.12,.18-.08,.06-.18,.11-.29,.13-.11,.03-.2,.04-.29,.03-.08,0-.12-.05-.12-.11-.2-.46-.33-.98-.39-1.55-.06-.57-.06-1.15,.01-1.74,.07-.59,.2-1.17,.39-1.74,.19-.57,.45-1.09,.8-1.55,.14-.04,.27-.07,.39-.09,.1-.02,.19-.02,.27-.01,.08,0,.12,.04,.12,.11-.14,.28-.23,.55-.27,.8-.04,.25-.12,.52-.24,.8,0,.06-.04,.11-.12,.15-.08,.04-.17,.07-.26,.09-.09,.02-.16,.03-.2,.03s-.03,0,.03,0c.14-.28,.19-.55,.13-.8-.05-.25,0-.52,.14-.8,.14-.14,.27-.22,.39-.24,.12-.02,.25-.03,.39-.03-.35,.4-.62,.87-.81,1.4-.19,.53-.33,1.09-.4,1.67-.07,.58-.07,1.16,0,1.73,.07,.57,.21,1.09,.42,1.55-.14,.12-.28,.19-.42,.21-.13,.02-.27,.03-.41,.03,0-.52,.02-1.09,.06-1.7,.04-.61,.2-1.19,.49-1.73,.14-.64,.31-1.3,.51-1.99,.2-.68,.29-1.41,.29-2.2Zm-.78,4.72c0-.06,.04-.11,.12-.15,.08-.04,.17-.06,.27-.06s.19,.02,.27,.06c.08,.04,.12,.09,.12,.15,0,.66,.03,1.33,.07,2.02,.05,.68,.09,1.36,.11,2.05,.02,.68,0,1.34-.05,1.98-.05,.64-.18,1.26-.38,1.86-.06,.06-.14,.12-.25,.18-.1,.06-.2,.1-.28,.12-.08,.02-.15,0-.22-.03-.06-.04-.09-.13-.09-.27-.27-.8-.38-1.65-.34-2.54,.04-.89,.06-1.8,.06-2.72,0-.08,.04-.14,.12-.16,.08-.03,.18-.05,.3-.05s.21,.01,.3,.05c.08,.03,.12,.09,.12,.16,0,.46-.01,.91-.03,1.34-.02,.43-.03,.86-.03,1.28s.02,.85,.06,1.29c.04,.44,.13,.89,.27,1.35h-.81c.26-.6,.42-1.22,.48-1.86,.06-.64,.07-1.3,.05-1.98-.03-.68-.08-1.36-.15-2.05-.07-.68-.11-1.35-.11-2.02Zm1.56,16.6c0,.06-.04,.12-.12,.18-.08,.06-.17,.11-.27,.13-.1,.03-.19,.05-.27,.05s-.12-.04-.12-.12c0-1.04-.04-2.09-.12-3.14-.08-1.05-.17-2.1-.27-3.16-.1-1.05-.19-2.1-.27-3.16-.08-1.05-.12-2.11-.12-3.17-.06-.06-.07-.12-.03-.18,.04-.06,.11-.11,.2-.14,.09-.03,.18-.04,.26-.04s.12,.04,.12,.12c.12,2.09,.32,4.18,.6,6.29,.28,2.11,.42,4.22,.42,6.35Zm-.24-13.17c-.14,.12-.29,.13-.47,.03-.17-.1-.2-.29-.07-.57,.52-.4,1.06-.68,1.61-.84,.55-.16,1.16-.32,1.82-.48-.12,.16-.19,.3-.21,.42-.02,.12-.03,.24-.03,.36-.28-.06-.57-.09-.86-.1-.29,0-.59-.03-.89-.05-.3-.02-.59-.05-.87-.09-.28-.04-.55-.12-.81-.24-.14-.16-.13-.29,.04-.39,.17-.1,.33-.15,.47-.15s.3,.06,.5,.18c.19,.12,.29,.32,.29,.6s-.1,.44-.29,.48c-.19,.04-.36,.06-.5,.06-.12,.06-.21,.08-.26,.05-.05-.03-.07-.08-.04-.14,.02-.06,.06-.14,.12-.23,.06-.09,.12-.17,.18-.23,.1,0,.09-.04-.03-.12-.06-.04-.14-.08-.24-.12,0-.16,.04-.26,.14-.3,.09-.04,.14-.12,.14-.24,.26,.14,.52,.23,.78,.27,.26,.04,.52,.07,.78,.09,.26,.02,.52,.04,.78,.04,.26,.01,.53,.06,.81,.14,.26,0,.35,.08,.26,.24-.09,.16-.26,.24-.5,.24-.54,0-1.02,.08-1.43,.24-.41,.16-.82,.44-1.22,.84Zm2.11-8.93c.14,0,.22,.03,.22,.08,.01,.05,0,.11-.06,.17-.05,.06-.12,.12-.21,.17-.09,.05-.18,.08-.26,.08-.34-.04-.63,.09-.86,.39-.23,.3-.41,.7-.54,1.19-.13,.49-.23,1.05-.29,1.67-.06,.62-.1,1.22-.12,1.8-.02,.58-.03,1.11-.01,1.58,0,.47,.01,.82,.01,1.04,0,.06-.04,.12-.12,.18-.08,.06-.17,.1-.27,.11-.1,0-.19,0-.27-.05-.08-.04-.12-.12-.12-.24,0-.3,0-.72-.03-1.26-.02-.54-.02-1.12,.01-1.75,.03-.62,.09-1.25,.18-1.88,.09-.63,.24-1.2,.45-1.7,.21-.5,.5-.9,.86-1.19,.36-.29,.83-.42,1.42-.38Zm-2.65,8.39c0-.1,.09-.17,.27-.21,.08-.02,.17-.03,.27-.03,0,.66,.09,1.32,.26,1.97,.17,.65,.26,1.31,.26,1.97v4.21c-.06,.6-.13,1.22-.2,1.85-.07,.63-.06,1.22,.03,1.78,.09,.55,.28,1.04,.57,1.47,.29,.43,.77,.75,1.43,.95,.08,.08,.11,.15,.09,.21-.02,.06-.06,.1-.13,.14-.07,.03-.15,.05-.24,.05s-.18-.03-.26-.09c-.58-.2-1.03-.48-1.35-.83-.32-.35-.56-.75-.71-1.2-.15-.45-.24-.93-.25-1.44-.02-.51-.03-1.03-.03-1.55,.14-.78,.22-1.57,.24-2.38,.02-.8,.03-1.59,.03-2.38,0-.38-.03-.76-.08-1.13-.05-.37-.1-.74-.15-1.1-.05-.36-.08-.73-.1-1.1-.02-.37,0-.76,.06-1.16Zm.78,1.87c0,.12-.04,.21-.12,.28-.08,.07-.17,.12-.27,.14-.1,.02-.19,.01-.27-.03-.08-.04-.12-.09-.12-.15,0-.78,.04-1.52,.14-2.23,.09-.7,.14-1.44,.14-2.23-.14-.54-.22-1.07-.24-1.59-.02-.52-.03-1.05-.03-1.59,.06-.06,.15-.12,.27-.18,.12-.06,.23-.09,.33-.11,.1-.01,.17,0,.21,.05,.04,.04,.03,.12-.03,.24,0,.66,.05,1.36,.14,2.11,.09,.74,.13,1.44,.13,2.1,0,.54-.05,1.07-.13,1.59-.09,.52-.14,1.05-.14,1.59Zm-.51,11.58c-.12,0-.19-.01-.21-.04-.02-.03,0-.06,.04-.09,.05-.03,.12-.06,.21-.09,.09-.03,.17-.05,.22-.05,.52,0,1.04,.02,1.56,.06,.52,.04,1.04,.2,1.56,.48v.24c-.24,.16-.54,.23-.9,.21-.36-.02-.66-.17-.9-.45,0-.14,.09-.26,.27-.35,.18-.09,.35-.06,.51,.08l.24,.27v.24c-.4-.26-.84-.41-1.31-.45-.47-.04-.91-.06-1.31-.06Zm2.07-22.14c-.12,0-.19-.03-.2-.09-.01-.06,0-.12,.06-.18,.05-.06,.12-.12,.2-.18,.08-.06,.16-.09,.24-.09,.38,0,.79,0,1.23,.03,.44,.02,.85,.09,1.22,.21,.37,.12,.7,.31,.98,.56,.28,.25,.45,.61,.51,1.07,.14,.34,.15,.64,.04,.89-.11,.25-.28,.45-.51,.6-.23,.15-.5,.24-.8,.26-.3,.02-.58-.03-.84-.15-.26-.14-.49-.35-.68-.62-.19-.27-.31-.55-.36-.84-.05-.29-.02-.57,.09-.84,.11-.27,.34-.48,.68-.62,.26-.14,.51-.14,.74-.01,.23,.13,.43,.32,.59,.57,.16,.25,.29,.52,.39,.81,.1,.29,.15,.54,.15,.74,0,.06,0,.11-.03,.15-.04,.08-.12,.12-.24,.12-.26,.06-.48,.07-.65,.01-.17-.05-.31-.14-.41-.27-.1-.13-.17-.29-.21-.47-.04-.18-.06-.37-.06-.57-.06-.08-.07-.15-.03-.21,.04-.06,.1-.1,.18-.14,.08-.03,.16-.04,.24-.04s.12,.03,.12,.09c.06,.08,.11,.19,.15,.33,.04,.14,.08,.28,.12,.41,.04,.13,.08,.24,.12,.32,.04,.08,.09,.09,.15,.03,0,.12,0,.19-.03,.21-.02,.02-.1,.03-.24,.03,0-.26-.06-.56-.2-.89-.13-.33-.33-.56-.59-.68-.14-.12-.21-.19-.21-.21,0-.02,.07-.03,.21-.03l-.27,.24c0,.12-.03,.25-.09,.39-.06,.14-.03,.27,.09,.39,0,.28,.11,.54,.33,.77,.22,.23,.46,.42,.72,.56,.32,.06,.53,.02,.63-.11,.1-.13,.14-.31,.11-.53-.03-.22-.1-.45-.21-.68-.11-.23-.2-.42-.26-.56-.2-.26-.43-.45-.68-.56-.25-.11-.52-.18-.8-.21-.28-.03-.57-.04-.87-.03-.3,.01-.58,.01-.84,.01Z"/>
        <path class="cls-2" d="M119.53,22.75c.06,0,.15,.02,.27,.05,.12,.03,.22,.07,.3,.12,.08,.05,.13,.11,.14,.18,.01,.07-.06,.13-.2,.2-.52,.4-1.06,.67-1.6,.81-.54,.14-1.14,.21-1.8,.21v-.48c.66,.12,1.31,.16,1.94,.12,.63-.04,1.21,0,1.73,.12,.14,0,.23,.03,.27,.09,.04,.06,.04,.12,0,.18-.04,.06-.11,.12-.2,.18-.09,.06-.21,.09-.34,.09-.26,0-.48-.06-.65-.18-.17-.12-.39-.24-.65-.36-.06-.06-.07-.14-.03-.23,.04-.09,.11-.17,.21-.23,.1-.06,.21-.1,.33-.14,.12-.03,.21-.01,.27,.04,.14,.16,.27,.29,.39,.39,.12,.1,.25,.15,.39,.15,0,.12,0,.2-.03,.24-.02,.04-.1,.14-.24,.3-.26-.08-.54-.12-.83-.14-.29,0-.59-.01-.92-.01s-.65,0-.98-.02c-.33,0-.66-.05-.98-.14-.12,0-.14-.08-.06-.24,.08-.16,.2-.24,.36-.24,.52,0,1.03-.08,1.53-.24,.5-.16,.95-.44,1.35-.84Zm-2.89,16.36c-.14,0-.22-.03-.23-.09-.01-.06,0-.12,.06-.18,.05-.06,.11-.12,.2-.18,.08-.06,.15-.09,.21-.09,1.32,0,2.64,.04,3.95,.12,1.31,.08,2.63,.12,3.96,.12,.14,0,.21,.03,.23,.09,.01,.06-.01,.12-.06,.18-.05,.06-.12,.12-.2,.18-.08,.06-.15,.09-.21,.09-1.32,0-2.64-.04-3.96-.12-1.31-.08-2.63-.12-3.95-.12Zm9.95-21.87c.06,0,.08,.03,.06,.07-.02,.05-.06,.1-.12,.15-.06,.05-.14,.08-.23,.09-.09,.01-.17-.01-.23-.07-.4-.14-.74-.31-1.02-.5-.28-.19-.56-.35-.84-.47-.28-.12-.59-.16-.92-.12-.33,.04-.73,.22-1.19,.54-.4,.4-.77,.82-1.11,1.26-.34,.44-.58,.99-.72,1.65-.12,.66-.19,1.33-.21,2.02-.02,.68-.02,1.37,.02,2.06,.03,.69,.07,1.38,.12,2.06,.05,.68,.08,1.35,.08,2.02-.14,.8-.22,1.59-.24,2.36-.02,.77-.03,1.49-.03,2.15,0,.78-.04,1.55-.12,2.32-.07,.76-.11,1.47-.11,2.14,0,.2,0,.39,.03,.56,.02,.17,.02,.33,0,.48-.02,.15-.07,.29-.14,.42-.08,.13-.21,.25-.41,.37-.26,.16-.62,.25-1.08,.27-.46,.02-.89,.03-1.29,.03-.14,.06-.25,.08-.32,.06-.07-.02-.1-.06-.1-.12s.04-.12,.1-.17c.07-.05,.17-.07,.32-.07,.14-.12,.32-.19,.56-.21,.23-.02,.49-.03,.77-.03,.26,0,.45-.05,.57-.13,.12-.09,.2-.21,.23-.36,.03-.15,.03-.32,.01-.51-.02-.19-.03-.39-.03-.59,.14-.78,.22-1.57,.24-2.36,.02-.79,.03-1.59,.03-2.39,.14-1.7,.22-3.41,.24-5.11,.02-1.7,.03-3.42,.03-5.14,0-.6,.03-1.14,.1-1.61,.06-.47,.19-.91,.36-1.32,.17-.41,.42-.8,.73-1.17,.31-.37,.7-.76,1.16-1.16,.26-.28,.53-.53,.8-.75,.27-.22,.61-.33,1.01-.33,.32,.08,.61,.19,.86,.32,.25,.13,.49,.27,.71,.42,.22,.15,.43,.3,.65,.45,.21,.15,.44,.3,.71,.44Zm-7.85,21.05c-.06,.06-.15,.11-.27,.15-.12,.04-.23,.06-.33,.06s-.18-.02-.23-.06c-.05-.04-.04-.09,.04-.15,.52-.32,.89-.71,1.1-1.16,.21-.45,.37-.93,.47-1.44,.1-.51,.19-1.04,.27-1.58,.08-.54,.25-1.07,.51-1.59,0-.14,.13-.23,.39-.27,.12-.02,.26-.03,.42-.03-.28,.66-.45,1.28-.51,1.85-.06,.57-.16,1.19-.3,1.85-.28,1.08-.8,1.88-1.56,2.38Zm2.11-3.43c0,.06-.04,.11-.13,.15-.08,.04-.18,.06-.29,.06s-.21-.02-.3-.06c-.08-.04-.12-.09-.12-.15,.14-.28,.23-.49,.27-.63,.04-.14,.13-.28,.27-.42,.14,0,.28-.03,.41-.1,.13-.07,.26-.04,.37,.1,.06,.34,.12,.77,.17,1.28,.05,.51,.06,1.02,.03,1.54-.03,.51-.12,.97-.27,1.38-.15,.41-.39,.68-.71,.8-.2,.14-.38,.2-.53,.18-.16-.02-.28-.08-.38-.17-.1-.09-.15-.21-.17-.36-.02-.15,0-.29,.06-.44,0-.26,.06-.46,.18-.6,.12-.14,.27-.24,.45-.32,.18-.07,.38-.11,.59-.12,.21,0,.42-.01,.62-.01-.1,0-.17,.05-.21,.15-.02,.04-.03,.08-.03,.12-.28-.14-.51-.29-.68-.44-.17-.15-.39-.36-.65-.62,.12,0,.25-.05,.38-.14,.13-.09,.27-.14,.41-.14,.06,.14,.14,.34,.24,.6,.1,.26,.21,.52,.32,.78,.11,.26,.23,.49,.36,.69,.13,.2,.27,.3,.41,.3,.12,0,.2,.04,.24,.12,.04,.08,.04,.16,.02,.24-.03,.08-.1,.15-.19,.2-.1,.05-.21,.04-.33-.05-.26,0-.48-.1-.66-.3-.18-.2-.34-.44-.47-.72-.13-.28-.25-.57-.36-.86-.11-.29-.23-.54-.35-.74-.06-.06-.07-.13-.03-.2,.04-.07,.11-.12,.21-.15,.1-.03,.21-.04,.33-.03,.12,.01,.21,.04,.27,.11,.14,.14,.32,.29,.52,.44,.21,.15,.39,.36,.53,.62,.14,.14,.17,.23,.08,.27-.09,.04-.21,.12-.35,.24h-.78c-.14,.16-.22,.3-.24,.42-.02,.12-.03,.25-.03,.39,.14-.14,.22-.33,.24-.57,.02-.24,.03-.49,.03-.75v-2.89h.54c0,.12-.05,.25-.14,.38-.09,.13-.13,.26-.13,.4Zm-.84-10.26c0-.08,.04-.15,.12-.21,.08-.06,.18-.09,.3-.1,.11-.01,.21,0,.29,.04,.09,.04,.13,.13,.13,.27v4.99c0,.8-.06,1.58-.17,2.35-.11,.76-.24,1.47-.38,2.14h-.51c.12-.52,.28-1.05,.48-1.58,.2-.53,.3-1.07,.3-1.61,.14-.52,.22-1,.24-1.43,.02-.43,.03-.92,.03-1.46,.14,0,.3-.03,.5-.09,.19-.06,.29-.03,.29,.09,.14,.54,.17,1.07,.08,1.59-.09,.52-.21,1.05-.35,1.59-.26,.78-.45,1.52-.56,2.23-.11,.7-.09,1.44,.05,2.23,0,.14-.04,.25-.13,.32-.08,.07-.18,.11-.29,.12-.12,.01-.21,0-.3-.03-.08-.03-.12-.08-.12-.14-.12-.66-.17-1.32-.15-1.97,.02-.65,.16-1.31,.43-1.97,.14-.66,.32-1.28,.52-1.85,.2-.57,.31-1.19,.31-1.85,.04-.04,.09-.08,.15-.12,.04-.04,.09-.07,.15-.11,.06-.03,.13-.04,.22-.04-.14,.54-.19,1.07-.14,1.59,.05,.52,0,1.05-.14,1.59-.12,.52-.26,1.04-.41,1.56-.15,.52-.37,1.04-.65,1.56,0,.06-.04,.11-.12,.15-.08,.04-.17,.06-.27,.06s-.19-.02-.27-.06c-.08-.04-.12-.09-.12-.15,.13-.78,.24-1.56,.34-2.35,.09-.78,.14-1.57,.14-2.38v-4.99Zm1.35-7.37c0-.08,.04-.14,.12-.17,.08-.03,.17-.04,.27-.04s.19,.01,.27,.04c.08,.03,.12,.09,.12,.17,0,1.06-.26,2.12-.78,3.16-.26,.78-.41,1.51-.45,2.2-.04,.68-.06,1.35-.06,2.01,0,.06-.04,.12-.12,.18-.08,.06-.18,.11-.29,.13-.11,.03-.21,.04-.29,.03-.08,0-.12-.05-.12-.11-.2-.46-.33-.98-.39-1.55-.06-.57-.06-1.15,.02-1.74,.07-.59,.2-1.17,.39-1.74,.19-.57,.46-1.09,.8-1.55,.14-.04,.27-.07,.39-.09,.1-.02,.19-.02,.27-.01,.08,0,.12,.04,.12,.11-.14,.28-.23,.55-.27,.8-.04,.25-.12,.52-.24,.8,0,.06-.04,.11-.12,.15-.08,.04-.17,.07-.26,.09-.09,.02-.16,.03-.2,.03s-.03,0,.03,0c.14-.28,.18-.55,.14-.8-.05-.25,0-.52,.13-.8,.14-.14,.27-.22,.39-.24,.12-.02,.25-.03,.39-.03-.35,.4-.62,.87-.81,1.4-.19,.53-.33,1.09-.4,1.67-.07,.58-.07,1.16,0,1.73,.07,.57,.21,1.09,.41,1.55-.14,.12-.28,.19-.41,.21-.13,.02-.27,.03-.41,.03,0-.52,.02-1.09,.06-1.7,.04-.61,.2-1.19,.49-1.73,.14-.64,.31-1.3,.51-1.99,.2-.68,.29-1.41,.29-2.2Zm-.78,4.72c0-.06,.04-.11,.12-.15,.08-.04,.17-.06,.27-.06,.1,0,.19,.02,.27,.06,.08,.04,.12,.09,.12,.15,0,.66,.03,1.33,.07,2.02,.05,.68,.09,1.36,.11,2.05,.02,.68,0,1.34-.05,1.98-.05,.64-.18,1.26-.38,1.86-.06,.06-.14,.12-.25,.18-.1,.06-.19,.1-.28,.12-.08,.02-.15,0-.22-.03-.06-.04-.09-.13-.09-.27-.27-.8-.38-1.65-.34-2.54,.04-.89,.06-1.8,.06-2.72,0-.08,.04-.14,.12-.16,.08-.03,.18-.05,.3-.05s.21,.01,.29,.05c.09,.03,.13,.09,.13,.16,0,.46-.01,.91-.03,1.34-.02,.43-.03,.86-.03,1.28s.02,.85,.06,1.29c.04,.44,.13,.89,.27,1.35h-.81c.26-.6,.42-1.22,.48-1.86,.06-.64,.07-1.3,.04-1.98-.03-.68-.08-1.36-.15-2.05-.07-.68-.1-1.35-.1-2.02Zm1.56,16.6c0,.06-.04,.12-.12,.18-.08,.06-.17,.11-.27,.13-.1,.03-.19,.05-.27,.05s-.12-.04-.12-.12c0-1.04-.04-2.09-.12-3.14-.08-1.05-.17-2.1-.27-3.16-.1-1.05-.19-2.1-.27-3.16-.08-1.05-.12-2.11-.12-3.17-.06-.06-.07-.12-.03-.18,.04-.06,.11-.11,.2-.14,.09-.03,.17-.04,.26-.04s.12,.04,.12,.12c.12,2.09,.32,4.18,.6,6.29,.28,2.11,.42,4.22,.42,6.35Zm-.24-13.17c-.14,.12-.29,.13-.47,.03-.17-.1-.2-.29-.07-.57,.52-.4,1.06-.68,1.61-.84,.55-.16,1.16-.32,1.82-.48-.12,.16-.19,.3-.21,.42-.02,.12-.03,.24-.03,.36-.28-.06-.57-.09-.86-.1-.29,0-.59-.03-.89-.05-.3-.02-.59-.05-.87-.09-.28-.04-.55-.12-.81-.24-.14-.16-.13-.29,.04-.39,.17-.1,.33-.15,.47-.15s.31,.06,.5,.18c.19,.12,.29,.32,.29,.6s-.1,.44-.29,.48c-.19,.04-.35,.06-.5,.06-.12,.06-.2,.08-.26,.05-.05-.03-.06-.08-.05-.14,.02-.06,.06-.14,.12-.23,.06-.09,.12-.17,.18-.23,.1,0,.09-.04-.03-.12-.06-.04-.14-.08-.24-.12,0-.16,.04-.26,.14-.3,.09-.04,.14-.12,.14-.24,.26,.14,.52,.23,.78,.27s.52,.07,.78,.09c.26,.02,.52,.04,.78,.04,.26,.01,.53,.06,.81,.14,.26,0,.35,.08,.26,.24-.09,.16-.26,.24-.5,.24-.54,0-1.02,.08-1.43,.24-.41,.16-.82,.44-1.22,.84Zm2.11-8.93c.14,0,.21,.03,.23,.08,0,.05-.01,.11-.06,.17-.05,.06-.12,.12-.21,.17-.09,.05-.18,.08-.26,.08-.34-.04-.63,.09-.86,.39-.23,.3-.41,.7-.54,1.19-.13,.49-.23,1.05-.29,1.67-.06,.62-.1,1.22-.12,1.8-.02,.58-.03,1.11-.02,1.58,.01,.47,.02,.82,.02,1.04,0,.06-.04,.12-.12,.18-.08,.06-.17,.1-.27,.11-.1,0-.19,0-.27-.05-.08-.04-.12-.12-.12-.24,0-.3-.01-.72-.03-1.26-.02-.54-.02-1.12,.01-1.75,.03-.62,.09-1.25,.18-1.88,.09-.63,.24-1.2,.45-1.7,.21-.5,.5-.9,.86-1.19,.36-.29,.83-.42,1.41-.38Zm-2.65,8.39c0-.1,.09-.17,.27-.21,.08-.02,.17-.03,.27-.03,0,.66,.09,1.32,.26,1.97,.17,.65,.26,1.31,.26,1.97v4.21c-.06,.6-.12,1.22-.2,1.85-.07,.63-.06,1.22,.03,1.78,.09,.55,.28,1.04,.57,1.47,.29,.43,.77,.75,1.43,.95,.08,.08,.11,.15,.09,.21-.02,.06-.06,.1-.13,.14-.07,.03-.15,.05-.24,.05s-.18-.03-.26-.09c-.58-.2-1.03-.48-1.35-.83-.32-.35-.56-.75-.71-1.2-.15-.45-.24-.93-.25-1.44-.02-.51-.03-1.03-.03-1.55,.14-.78,.22-1.57,.24-2.38,.02-.8,.03-1.59,.03-2.38,0-.38-.02-.76-.07-1.13-.05-.37-.1-.74-.15-1.1-.05-.36-.09-.73-.11-1.1-.02-.37,0-.76,.06-1.16Zm.78,1.87c0,.12-.04,.21-.12,.28-.08,.07-.17,.12-.27,.14-.1,.02-.19,.01-.27-.03-.08-.04-.12-.09-.12-.15,0-.78,.04-1.52,.14-2.23,.09-.7,.14-1.44,.14-2.23-.14-.54-.22-1.07-.24-1.59-.02-.52-.03-1.05-.03-1.59,.06-.06,.15-.12,.27-.18,.12-.06,.23-.09,.33-.11,.1-.01,.17,0,.21,.05,.04,.04,.03,.12-.03,.24,0,.66,.04,1.36,.14,2.11,.09,.74,.14,1.44,.14,2.1,0,.54-.04,1.07-.14,1.59-.09,.52-.14,1.05-.14,1.59Zm-.51,11.58c-.12,0-.19-.01-.21-.04-.02-.03,0-.06,.04-.09,.05-.03,.12-.06,.21-.09,.09-.03,.17-.05,.23-.05,.52,0,1.04,.02,1.56,.06,.52,.04,1.04,.2,1.56,.48v.24c-.24,.16-.54,.23-.9,.21-.36-.02-.66-.17-.9-.45,0-.14,.09-.26,.27-.35,.18-.09,.35-.06,.51,.08l.24,.27v.24c-.4-.26-.84-.41-1.31-.45-.47-.04-.91-.06-1.31-.06Zm2.07-22.14c-.12,0-.19-.03-.2-.09-.01-.06,0-.12,.06-.18,.05-.06,.11-.12,.19-.18,.08-.06,.16-.09,.24-.09,.38,0,.79,0,1.23,.03,.44,.02,.85,.09,1.22,.21,.37,.12,.7,.31,.98,.56,.28,.25,.45,.61,.51,1.07,.14,.34,.15,.64,.05,.89-.11,.25-.28,.45-.51,.6-.23,.15-.5,.24-.8,.26-.3,.02-.58-.03-.84-.15-.26-.14-.49-.35-.68-.62-.19-.27-.31-.55-.36-.84-.05-.29-.02-.57,.09-.84,.11-.27,.34-.48,.68-.62,.26-.14,.51-.14,.74-.01,.23,.13,.43,.32,.59,.57,.16,.25,.29,.52,.39,.81,.1,.29,.15,.54,.15,.74,0,.06-.01,.11-.03,.15-.04,.08-.12,.12-.24,.12-.26,.06-.48,.07-.65,.01-.17-.05-.31-.14-.41-.27-.1-.13-.17-.29-.21-.47-.04-.18-.06-.37-.06-.57-.06-.08-.07-.15-.03-.21,.04-.06,.1-.1,.18-.14,.08-.03,.16-.04,.24-.04s.12,.03,.12,.09c.06,.08,.11,.19,.15,.33,.04,.14,.08,.28,.12,.41,.04,.13,.08,.24,.12,.32,.04,.08,.09,.09,.15,.03,0,.12,0,.19-.03,.21-.02,.02-.1,.03-.24,.03,0-.26-.07-.56-.2-.89-.13-.33-.33-.56-.59-.68-.14-.12-.21-.19-.21-.21,0-.02,.07-.03,.21-.03l-.27,.24c0,.12-.03,.25-.09,.39-.06,.14-.03,.27,.09,.39,0,.28,.11,.54,.33,.77,.22,.23,.46,.42,.72,.56,.32,.06,.53,.02,.63-.11,.1-.13,.14-.31,.11-.53-.03-.22-.1-.45-.21-.68-.11-.23-.2-.42-.26-.56-.2-.26-.43-.45-.68-.56-.25-.11-.52-.18-.8-.21-.28-.03-.57-.04-.87-.03-.3,.01-.58,.01-.84,.01Z"/>
      </g>
      <path class="cls-1" d="M140.96,34.06c0,.12-.08,.22-.24,.3-.16,.08-.35,.12-.57,.12s-.41-.04-.57-.12c-.16-.08-.24-.18-.24-.3-.52-2.63-.86-5.35-1.02-8.18-.16-2.83-.5-5.67-1.01-8.54-.28-2.39-.49-4.74-.63-7.05-.14-2.31,.07-4.66,.63-7.05,0-.12,.08-.24,.24-.36,.16-.12,.34-.21,.54-.27,.2-.06,.38-.09,.54-.09s.24,.06,.24,.18c-.56,2.63-.75,5.23-.57,7.82,.18,2.59,.53,5.19,1.04,7.82,.52,2.63,.84,5.25,.95,7.85,.12,2.61,.34,5.22,.66,7.85Zm2.63,7.82c0,.12-.08,.24-.24,.36-.16,.12-.35,.2-.57,.24-.22,.04-.41,.02-.57-.06-.16-.08-.24-.26-.24-.54-.28-.28-.56-.59-.83-.92-.28-.34-.68-.39-1.2-.15-.32,.28-.58,.57-.78,.87-.2,.3-.3,.73-.3,1.28-.28,.56-.29,1.23-.03,2.03,.26,.8,.77,1.34,1.52,1.61,.56,0,1.05-.22,1.49-.66,.44-.44,.66-.93,.66-1.49,.12-.24,.13-.49,.03-.75-.1-.26-.26-.5-.5-.72-.23-.22-.49-.43-.79-.63-.29-.2-.57-.36-.84-.48h1.07c-.24,.28-.47,.65-.67,1.11-.2,.46-.14,.95,.18,1.46,0,.32,.02,.58,.06,.78,.04,.2,.18,.3,.43,.3-.24,0-.39,.07-.43,.21-.04,.14-.06,.07-.06-.21v-2.09c0-.12-.03-.22-.09-.3-.06-.08-.11-.15-.15-.21-.04-.06-.05-.13-.03-.21,.02-.08,.11-.18,.28-.3,0-.24,.16-.4,.49-.48,.16-.04,.34-.06,.54-.06,.28,.56,.49,1.16,.63,1.82,.14,.66-.07,1.26-.63,1.82,0,.56-.21,.95-.63,1.19-.42,.24-.9,.36-1.43,.36-.69-.24-1.13-.63-1.31-1.16-.18-.54-.26-1.11-.24-1.73,.02-.62,.1-1.23,.24-1.85,.14-.62,.21-1.12,.21-1.52,.25-.24,.51-.47,.8-.68,.29-.22,.53-.33,.74-.33,.57,.28,1.11,.74,1.6,1.37,.49,.64,.88,1.23,1.17,1.79,0,.76-.32,1.29-.96,1.61-.64,.32-1.23,.48-1.79,.48-.52,0-.68-.17-.48-.51,.2-.34,.56-.51,1.07-.51,.24,0,.38-.02,.42-.06,.04-.04,.06-.22,.06-.54,0-.08-.02-.18-.06-.3-.08-.24-.22-.48-.43-.72,0-.52-.55-1.05-1.64-1.61,.33,0,.59-.02,.77-.06,.19-.04,.28-.18,.28-.42,0,.4-.05,.82-.15,1.25-.1,.44-.2,.88-.3,1.31-.1,.44-.16,.85-.18,1.22-.02,.38,.05,.69,.21,.93,0,.24,.07,.4,.21,.48,.14,.08,.21,.26,.21,.54,.31-.28,.48-.46,.52-.54,.04-.08,.06-.24,.06-.48v-2.09c.23,0,.39-.09,.46-.27,.08-.18,.25-.27,.52-.27v.54c.08,0,.15,.02,.23,.06,.19,.12,.29,.26,.29,.42v1.02c0,.56-.04,1.06-.12,1.49-.08,.44-.4,.66-.96,.66-.56,.24-1.04,.17-1.46-.21-.42-.38-.63-.83-.63-1.34-.24-.52-.28-1.12-.12-1.82,.16-.7,.4-1.32,.72-1.88,.16-.24,.38-.4,.66-.48,.12-.04,.24-.06,.36-.06,.52,.28,1.01,.58,1.49,.9,.48,.32,.87,.68,1.16,1.07,.3,.4,.47,.83,.51,1.28,.04,.46-.14,.95-.54,1.46-.12,.4-.34,.75-.66,1.05-.32,.3-.68,.54-1.08,.72-.4,.18-.82,.26-1.25,.24-.44-.02-.86-.17-1.25-.45-.64-.24-1.13-.6-1.46-1.07-.34-.48-.56-.99-.66-1.55-.1-.56-.09-1.11,.03-1.67,.12-.56,.3-1.03,.54-1.43,1.11-1.03,2.17-1.55,3.16-1.55,.52,0,1.01,.21,1.49,.63,.48,.42,.85,.91,1.14,1.46Zm-5.26-39.16c0,.12-.08,.22-.24,.3-.16,.08-.32,.12-.48,.12s-.28-.04-.36-.12c-.08-.08-.06-.18,.06-.3,.12-.4,.33-.78,.63-1.13,.3-.36,.65-.68,1.04-.96,.4-.28,.82-.47,1.25-.57,.44-.1,.84-.07,1.2,.09,.8,.12,1.38,.39,1.76,.81,.38,.42,.63,.9,.74,1.43,.12,.54,.17,1.12,.15,1.76-.02,.64-.03,1.21-.03,1.73-.12,1.15-.24,2.27-.38,3.34-.13,1.07-.28,2.13-.44,3.16-.16,1.04-.33,2.09-.53,3.16-.19,1.07-.43,2.21-.7,3.4,0,.52-.02,1.05-.06,1.61-.04,.56-.19,1.23-.47,2.03v2.03c-.24,.56-.48,1.2-.71,1.94-.24,.74-.36,1.48-.36,2.24,0,.28-.08,.49-.25,.63-.17,.14-.34,.21-.53,.21s-.36-.07-.53-.21c-.17-.14-.25-.35-.25-.63,.25-.75,.5-1.61,.76-2.57,.25-.96,.38-1.83,.38-2.63,.19-1.55,.42-3,.7-4.36,.27-1.35,.52-2.69,.76-4,.27-1.31,.45-2.71,.53-4.18,.08-1.47,.25-2.85,.52-4.12V3.25c0-.28-.11-.63-.33-1.05-.22-.42-.47-.77-.75-1.04-1.51,0-2.55,.52-3.11,1.55Zm0,3.64c0-.2,.16-.34,.48-.42,.16-.04,.34-.06,.55-.06,0,1.04-.04,2.1-.12,3.19-.08,1.1-.12,2.18-.12,3.25s.08,2.13,.24,3.16c.16,1.04,.51,1.99,1.04,2.87-.2,.32-.45,.5-.73,.54-.28,.04-.55,.06-.8,.06,.25-1.07,.31-2.13,.18-3.16-.12-1.03-.18-2.09-.18-3.16,0-.12,.05-.38,.16-.78,.1-.4,.19-.81,.25-1.22,.06-.42,.08-.8,.06-1.13-.02-.34-.18-.51-.47-.51,.29-.28,.55-.44,.76-.48,.12-.04,.25-.06,.38-.06-.16,.8-.32,1.76-.48,2.9-.16,1.13-.22,2.3-.18,3.49,.04,1.19,.21,2.31,.51,3.34,.3,1.04,.84,1.81,1.64,2.33,0,.12-.06,.24-.18,.36-.12,.12-.26,.21-.42,.27-.16,.06-.32,.09-.48,.09s-.3-.08-.42-.24c-.8-.52-1.35-1.28-1.67-2.3-.32-1.02-.5-2.13-.54-3.34-.04-1.21,.02-2.44,.18-3.67,.16-1.23,.3-2.31,.42-3.22,.08-.08,.18-.16,.3-.24,.24-.16,.48-.24,.72-.24,.32,0,.61,.02,.87,.06,.26,.04,.67,.18,1.22,.42v.54c-.53,.64-.85,1.34-.98,2.12-.12,.78-.17,1.59-.15,2.45,.02,.86,.07,1.74,.15,2.66,.08,.92,.04,1.83-.12,2.75-.24,.08-.45,.14-.61,.18-.41,.08-.71,.02-.92-.18-.52-.92-.87-1.89-1.04-2.93-.18-1.03-.25-2.1-.21-3.19s.14-2.19,.3-3.28c.16-1.09,.3-2.16,.42-3.19Zm3.16-4.66c.28-.28,.6-.42,.96-.42s.4,.14,.12,.42c-.56,.8-.98,1.49-1.25,2.09-.28,.6-.58,1.29-.9,2.09,0,.24-.2,.46-.59,.66-.39,.2-.71,.14-.96-.18-.52-.4-.86-.87-1.01-1.4-.16-.54-.16-1.06,0-1.58,.16-.52,.46-.98,.91-1.4,.44-.42,1-.69,1.66-.81,.32,0,.5,.02,.54,.06,.04,.04,.06,.2,.06,.48,.24,.8,.34,1.47,.3,2.03-.04,.56-.34,1.1-.9,1.61-.21,.28-.52,.42-.93,.42s-.62-.14-.62-.42c0-.24-.02-.55-.06-.93-.04-.38-.04-.75,0-1.13,.04-.38,.14-.76,.3-1.13,.16-.38,.45-.71,.86-.99,.12-.12,.3-.24,.52-.36,.22-.12,.47-.19,.73-.21,.26-.02,.52,0,.78,.09,.26,.08,.45,.24,.57,.48,.28,.4,.46,.85,.54,1.34,.08,.5,.1,1.01,.06,1.52-.04,.52-.12,1.04-.24,1.55-.12,.52-.24,.98-.36,1.37-.28,1.55-.61,3.13-.99,4.72-.38,1.59-.57,3.31-.57,5.14,0,.12-.08,.22-.24,.3-.16,.08-.36,.12-.58,.12s-.42-.04-.58-.12c-.16-.08-.25-.18-.25-.3,0-1.83,.19-3.65,.58-5.46,.39-1.81,.74-3.63,1.07-5.46,.25-.28,.39-.63,.43-1.04,.04-.42,.06-.79,.06-1.11v-1.01c-.08-.08-.18-.16-.3-.24-.24-.16-.5-.24-.78-.24l-.06,3.1c-.17,0-.39-.09-.66-.27-.27-.18-.53-.27-.77-.27,.56-.24,.87-.6,.96-1.08,.08-.48,.12-.97,.12-1.49h.42c-.52,.12-.86,.33-1.01,.63-.16,.3-.21,.63-.15,.99,.06,.36,.21,.72,.45,1.07,.24,.36,.48,.68,.72,.96-.2,0-.44,.02-.72,.06-.28,.04-.54,.18-.78,.42,.24-1.03,.54-1.94,.9-2.72,.36-.78,.91-1.42,1.67-1.94Zm-1.49,21.91c0-.52,.09-1.02,.27-1.52,.18-.5,.43-1.02,.75-1.58,0-.12-.08-.22-.24-.3-.16-.08-.35-.12-.57-.12s-.42,.04-.58,.12c-.17,.08-.25,.18-.25,.3-.25,.56-.4,1.09-.44,1.58-.04,.5-.06,1.01-.06,1.52-.12,.12-.14,.22-.06,.3,.08,.08,.21,.12,.4,.12s.37-.04,.53-.12c.17-.08,.25-.18,.25-.3Zm-.66-16.18c-.24,0-.34-.18-.3-.54,.04-.36,.34-.54,.9-.54,.24,0,.4,.06,.48,.18,.08,.12,.08,.24,0,.36-.08,.12-.22,.24-.42,.36-.2,.12-.42,.18-.66,.18Zm.66-4.18c0-.12,.08-.24,.24-.36,.16-.12,.33-.19,.51-.21,.18-.02,.35,0,.51,.09,.16,.08,.24,.24,.24,.48,0,2.63,.07,5.34,.21,8.15,.14,2.81,.07,5.66-.21,8.57h-1.49c.2-1.87,.39-3.69,.57-5.46,.18-1.77,.67-3.43,1.46-4.99,0-.12,.08-.24,.24-.36,.16-.12,.35-.2,.57-.24,.22-.04,.41-.02,.57,.06,.16,.08,.24,.26,.24,.54-.8,1.55-1.28,3.22-1.46,4.99-.18,1.77-.41,3.59-.69,5.46,0,.12-.08,.22-.24,.3-.16,.08-.33,.12-.51,.12s-.35-.04-.51-.12c-.16-.08-.24-.18-.24-.3,.2-2.9,.25-5.7,.15-8.39-.1-2.69-.15-5.46-.15-8.33Z"/>
    </g>
  </g>
</svg>